<?xml version="1.0" encoding="UTF-8" standalone="no"?>
<!DOCTYPE svg PUBLIC "-//W3C//DTD SVG 1.1//EN" "http://www.w3.org/Graphics/SVG/1.1/DTD/svg11.dtd">
<svg width="100%" height="100%" viewBox="0 0 3452 3452" version="1.1" xmlns="http://www.w3.org/2000/svg" xmlns:xlink="http://www.w3.org/1999/xlink" xml:space="preserve" xmlns:serif="http://www.serif.com/" style="fill-rule:evenodd;clip-rule:evenodd;stroke-linejoin:round;stroke-miterlimit:2;">
    <g id="Capa-1" serif:id="Capa 1" transform="matrix(4.166667,0,0,4.166667,0,0)">
        <g transform="matrix(0,-1,-1,0,414.1269,-0.0004)">
            <path d="M-414.127,-414.127C-642.841,-414.127 -828.254,-228.713 -828.254,0C-828.254,228.725 -642.841,414.127 -414.127,414.127C-185.414,414.127 0,228.725 0,0C0,-228.713 -185.414,-414.127 -414.127,-414.127" style="fill:rgb(0,23,73);fill-rule:nonzero;"/>
        </g>
        <g transform="matrix(1,0,0,1,0,-144.377)">
            <rect x="393.818" y="329.874" width="40.618" height="312.883" style="fill:white;"/>
        </g>
        <g transform="matrix(1,0,0,1,0,-457.258)">
            <rect x="287.348" y="593.84" width="253.559" height="97.832" style="fill:rgb(171,173,177);"/>
        </g>
        <g transform="matrix(1,0,0,1,0,-457.259)">
            <rect x="307.316" y="608.821" width="213.621" height="67.871" style="fill:rgb(0,23,73);"/>
        </g>
        <g transform="matrix(1,0,0,1,0,-457.259)">
            <rect x="307.316" y="608.821" width="213.621" height="67.871" style="fill:rgb(0,23,73);"/>
        </g>
        <g transform="matrix(1,0,0,1,378.6718,198.0652)">
            <path d="M0,-30.922L0,-17.053L-1.308,-15.745L-2.614,-17.053L-2.614,-30.922L-1.308,-32.23L0,-30.922ZM-2.956,0.227L-1.591,1.592L-2.956,2.956L-16.711,2.956L-18.075,1.592L-16.711,0.227L-2.956,0.227ZM-2.983,-16.939L-1.62,-15.574L-2.983,-14.21L-16.739,-14.21L-18.104,-15.574L-16.739,-16.939L-2.983,-16.939ZM-3.041,-33.878L-1.677,-32.514L-3.041,-31.15L-16.797,-31.15L-18.161,-32.514L-16.797,-33.878L-3.041,-33.878ZM-17.052,-13.869L-17.052,0L-18.359,1.307L-19.667,0L-19.667,-13.869L-18.359,-15.177L-17.052,-13.869ZM-17.081,-31.007L-17.081,-28.506L-18.388,-27.198L-19.695,-28.506L-19.695,-31.007L-18.388,-32.315L-17.081,-31.007Z" style="fill:white;fill-rule:nonzero;"/>
        </g>
        <g transform="matrix(1,0,0,1,404.0234,181.2961)">
            <path d="M0,3.184L0,17.053L-1.308,18.361L-2.614,17.053L-2.614,3.184L-1.308,1.876L0,3.184ZM0,-13.869L0,0.001L-1.308,1.308L-2.614,0.001L-2.614,-13.869L-1.308,-15.176L0,-13.869ZM-4.063,-13.186L-3.382,-11.197L-7.901,0.058L-9.635,1.024L-10.316,-1.136L-5.77,-12.22L-4.063,-13.186ZM-10.032,2.445L-9.351,4.435L-13.869,15.689L-15.603,16.656L-16.285,14.496L-11.737,3.412L-10.032,2.445ZM-2.927,17.281L-1.563,18.645L-2.927,20.009L-16.683,20.009L-18.047,18.645L-16.683,17.281L-2.927,17.281ZM-3.013,-16.825L-1.648,-15.461L-3.013,-14.096L-16.769,-14.096L-18.132,-15.461L-16.769,-16.825L-3.013,-16.825ZM-17.053,3.184L-17.053,17.053L-18.36,18.361L-19.667,17.053L-19.667,3.184L-18.36,1.876L-17.053,3.184ZM-17.053,-13.869L-17.053,0.001L-18.36,1.308L-19.667,0.001L-19.667,-13.869L-18.36,-15.176L-17.053,-13.869Z" style="fill:white;fill-rule:nonzero;"/>
        </g>
        <g transform="matrix(1,0,0,1,442.4775,188.2312)">
            <path d="M0,-11.254L0,-9.208L-6.366,-2.927L-8.299,-2.927L-8.299,-5.172L-1.933,-11.254L0,-11.254ZM-10.63,-5.001L1.421,6.879L1.421,9.096L-0.512,9.096L-12.563,-2.955L-12.563,-5.001L-10.63,-5.001ZM-13.103,-4.035L-13.103,9.834L-14.41,11.142L-15.717,9.834L-15.717,-4.035L-14.41,-5.343L-13.103,-4.035ZM-13.103,-21.088L-13.103,-7.219L-14.41,-5.911L-15.717,-7.219L-15.717,-21.088L-14.41,-22.396L-13.103,-21.088Z" style="fill:white;fill-rule:nonzero;"/>
        </g>
        <g transform="matrix(1,0,0,1,469.2783,192.2391)">
            <path d="M0,8.867L0,17.053L-1.308,18.36L-2.615,17.053L-2.615,8.867L-1.308,7.56L0,8.867ZM-0.028,-8.043L-0.028,5.826L-1.336,7.134L-2.643,5.826L-2.643,-8.043L-1.336,-9.351L-0.028,-8.043ZM-2.956,17.138L-1.592,18.502L-2.956,19.866L-16.711,19.866L-18.076,18.502L-16.711,17.138L-2.956,17.138ZM-2.956,6.054L-1.592,7.418L-2.956,8.782L-16.711,8.782L-18.076,7.418L-16.711,6.054L-2.956,6.054ZM-2.956,-10.999L-1.592,-9.635L-2.956,-8.271L-16.711,-8.271L-18.076,-9.635L-16.711,-10.999L-2.956,-10.999ZM-17.081,-8.043L-17.081,5.826L-18.389,7.134L-19.695,5.826L-19.695,-8.043L-18.389,-9.351L-17.081,-8.043Z" style="fill:white;fill-rule:nonzero;"/>
        </g>
        <g transform="matrix(-1,0,0,1,828.253,301.241)">
            <rect x="151.554" y="208.836" width="525.145" height="109.341" style="fill:white;"/>
        </g>
        <g transform="matrix(-1,0,0,1,370.137,432.055)">
            <rect x="171.078" y="187.362" width="27.981" height="21.475" style="fill:rgb(171,173,177);"/>
        </g>
        <g transform="matrix(-1,0,0,1,1286.374,432.055)">
            <rect x="629.197" y="187.362" width="27.98" height="21.475" style="fill:rgb(171,173,177);"/>
        </g>
        <g transform="matrix(-1,0,0,1,828.255,199.743)">
            <rect x="139.842" y="298.638" width="548.571" height="31.235" style="fill:rgb(171,173,177);"/>
        </g>
        <g transform="matrix(-1,0,0,1,151.5542,554.9948)">
            <path d="M-525.145,-25.379L0,-25.379L0,0L-525.145,-12.689L-525.145,-25.379Z" style="fill:rgb(74,81,83);fill-rule:nonzero;"/>
        </g>
        <g transform="matrix(1,0,0,1,299.2685,460.9591)">
            <path d="M0,-87.688L0,-37.775L-66.351,-37.775L-66.351,-87.688L-65.509,-87.688L-103.762,-87.688L-124.604,-77.201L-76.977,0L10.626,0L58.254,-77.201L37.411,-87.688" style="fill:rgb(171,173,177);fill-rule:nonzero;"/>
        </g>
        <g transform="matrix(1,0,0,1,309.8945,498.3804)">
            <path d="M0,-114.622L0,-52.107L-87.603,-52.107L-87.603,-114.622L-135.23,-114.622L-135.23,0L47.628,0L47.628,-114.622L0,-114.622Z" style="fill:rgb(111,112,114);fill-rule:nonzero;"/>
        </g>
        <g transform="matrix(1,0,0,1,0,-51.066)">
            <rect x="228.828" y="431.998" width="75.786" height="15.324" style="fill:rgb(171,173,177);"/>
        </g>
        <g transform="matrix(1,0,0,1,0,-35.533)">
            <rect x="226.903" y="426.952" width="79.636" height="9.883" style="fill:rgb(111,112,114);"/>
        </g>
        <g transform="matrix(-1,0,0,1,532.831,119.083)">
            <rect x="223.633" y="339.909" width="85.565" height="29.353" style="fill:rgb(94,102,104);"/>
        </g>
        <g transform="matrix(-1,0,0,1,532.831,119.083)">
            <rect x="222.479" y="338.756" width="87.873" height="31.659" style="fill:rgb(171,173,177);"/>
        </g>
        <g transform="matrix(1,0,0,1,238.4189,477.7736)">
            <path d="M0,-8.979C-0.488,-8.622 -1.035,-8.071 -1.64,-7.327L-4.152,-9.351C-3.749,-9.897 -3.342,-10.38 -2.931,-10.802C-2.52,-11.223 -2.078,-11.579 -1.604,-11.868C-1.132,-12.157 -0.608,-12.375 -0.035,-12.524C0.539,-12.672 1.189,-12.747 1.919,-12.747C2.787,-12.747 3.566,-12.626 4.257,-12.386C4.946,-12.145 5.536,-11.805 6.024,-11.363C6.514,-10.92 6.885,-10.389 7.141,-9.77C7.396,-9.149 7.525,-8.459 7.525,-7.7C7.525,-7.016 7.436,-6.409 7.258,-5.874C7.079,-5.338 6.815,-4.831 6.467,-4.35C6.117,-3.87 5.672,-3.392 5.129,-2.919C4.586,-2.446 3.958,-1.93 3.245,-1.373L0.594,0.674L7.687,0.674L7.687,3.768L-4.361,3.768L-4.361,0.935L1.059,-3.5C1.57,-3.917 2.004,-4.293 2.361,-4.625C2.718,-4.958 3.008,-5.276 3.233,-5.579C3.458,-5.879 3.621,-6.174 3.722,-6.46C3.822,-6.747 3.873,-7.06 3.873,-7.401C3.873,-8.097 3.672,-8.624 3.269,-8.979C2.865,-9.335 2.338,-9.514 1.687,-9.514C1.051,-9.514 0.488,-9.335 0,-8.979" style="fill:rgb(0,23,73);fill-rule:nonzero;"/>
        </g>
        <g transform="matrix(1,0,0,1,259.2021,475.4482)">
            <path d="M0,-4.095C-0.171,-4.73 -0.411,-5.281 -0.721,-5.745C-1.031,-6.211 -1.407,-6.575 -1.85,-6.839C-2.291,-7.103 -2.783,-7.235 -3.326,-7.235C-3.869,-7.235 -4.357,-7.107 -4.792,-6.851C-5.227,-6.595 -5.599,-6.238 -5.908,-5.781C-6.219,-5.324 -6.455,-4.777 -6.617,-4.141C-6.78,-3.505 -6.862,-2.816 -6.862,-2.072C-6.862,-1.326 -6.777,-0.636 -6.606,-0.001C-6.436,0.635 -6.195,1.185 -5.885,1.651C-5.575,2.116 -5.199,2.481 -4.757,2.744C-4.314,3.009 -3.822,3.139 -3.279,3.139C-2.737,3.139 -2.249,3.011 -1.814,2.756C-1.381,2.5 -1.008,2.139 -0.698,1.675C-0.388,1.209 -0.151,0.663 0.012,0.034C0.174,-0.594 0.256,-1.281 0.256,-2.025C0.256,-2.769 0.17,-3.458 0,-4.095M3.407,1.255C3.059,2.278 2.566,3.171 1.931,3.93C1.295,4.69 0.531,5.288 -0.36,5.721C-1.253,6.155 -2.241,6.373 -3.326,6.373C-4.412,6.373 -5.4,6.159 -6.292,5.733C-7.184,5.307 -7.943,4.714 -8.571,3.954C-9.199,3.194 -9.685,2.305 -10.025,1.29C-10.367,0.274 -10.537,-0.83 -10.537,-2.025C-10.537,-3.202 -10.363,-4.308 -10.014,-5.339C-9.665,-6.37 -9.173,-7.266 -8.537,-8.026C-7.901,-8.785 -7.138,-9.382 -6.246,-9.817C-5.354,-10.251 -4.365,-10.468 -3.279,-10.468C-2.194,-10.468 -1.206,-10.255 -0.314,-9.828C0.577,-9.402 1.338,-8.808 1.965,-8.049C2.594,-7.288 3.078,-6.398 3.419,-5.374C3.76,-4.351 3.931,-3.249 3.931,-2.072C3.931,-0.876 3.756,0.231 3.407,1.255" style="fill:rgb(0,23,73);fill-rule:nonzero;"/>
        </g>
        <g transform="matrix(1,0,0,1,280.9736,464.5626)">
            <path d="M0,16.979L-3.257,11.884L-4.489,13.187L-4.489,16.979L-8.025,16.979L-8.025,0L-4.489,0L-4.489,9.047L-0.35,4.511L3.885,4.511L-0.861,9.419L4.047,16.979L0,16.979Z" style="fill:rgb(0,23,73);fill-rule:nonzero;"/>
        </g>
        <g transform="matrix(1,0,0,1,295.7666,479.4959)">
            <path d="M0,-4.84C0,-5.258 -0.077,-5.646 -0.232,-6.002C-0.388,-6.36 -0.601,-6.665 -0.872,-6.921C-1.144,-7.177 -1.465,-7.375 -1.837,-7.514C-2.209,-7.654 -2.613,-7.724 -3.047,-7.724C-3.48,-7.724 -3.881,-7.654 -4.244,-7.514C-4.609,-7.375 -4.928,-7.177 -5.198,-6.921C-5.47,-6.665 -5.684,-6.36 -5.838,-6.002C-5.993,-5.646 -6.07,-5.258 -6.07,-4.84L-6.07,-4.793C-6.07,-3.924 -5.784,-3.227 -5.21,-2.699C-4.637,-2.172 -3.915,-1.908 -3.047,-1.908C-2.613,-1.908 -2.209,-1.979 -1.837,-2.117C-1.465,-2.258 -1.144,-2.455 -0.872,-2.711C-0.601,-2.967 -0.388,-3.274 -0.232,-3.63C-0.077,-3.986 0,-4.374 0,-4.793L0,-4.84ZM3.059,2.244C2.771,3.072 2.338,3.752 1.757,4.279C1.175,4.806 0.45,5.193 -0.418,5.441C-1.287,5.689 -2.303,5.814 -3.465,5.814C-4.488,5.814 -5.466,5.701 -6.396,5.476C-7.326,5.252 -8.188,4.93 -8.979,4.512L-7.769,1.859C-7.117,2.217 -6.463,2.496 -5.803,2.697C-5.145,2.898 -4.396,3 -3.559,3C-2.349,3 -1.453,2.713 -0.872,2.139C-0.29,1.565 0,0.721 0,-0.397L0,-1.002C-0.527,-0.365 -1.101,0.131 -1.721,0.487C-2.342,0.844 -3.125,1.022 -4.07,1.022C-4.799,1.022 -5.497,0.894 -6.164,0.639C-6.83,0.383 -7.42,0.007 -7.932,-0.489C-8.443,-0.986 -8.85,-1.594 -9.152,-2.316C-9.455,-3.037 -9.606,-3.862 -9.606,-4.793L-9.606,-4.84C-9.606,-5.77 -9.451,-6.596 -9.141,-7.317C-8.831,-8.037 -8.42,-8.647 -7.908,-9.143C-7.396,-9.639 -6.808,-10.015 -6.141,-10.271C-5.474,-10.527 -4.783,-10.654 -4.07,-10.654C-3.109,-10.654 -2.318,-10.477 -1.697,-10.119C-1.078,-9.762 -0.527,-9.32 -0.046,-8.793L-0.046,-10.422L3.489,-10.422L3.489,-0.769C3.489,0.41 3.346,1.414 3.059,2.244" style="fill:rgb(0,23,73);fill-rule:nonzero;"/>
        </g>
    </g>
</svg>
