<?xml version="1.0" encoding="UTF-8" standalone="no"?>
<!DOCTYPE svg PUBLIC "-//W3C//DTD SVG 1.1//EN" "http://www.w3.org/Graphics/SVG/1.1/DTD/svg11.dtd">
<svg width="100%" height="100%" viewBox="0 0 3452 3452" version="1.1" xmlns="http://www.w3.org/2000/svg" xmlns:xlink="http://www.w3.org/1999/xlink" xml:space="preserve" xmlns:serif="http://www.serif.com/" style="fill-rule:evenodd;clip-rule:evenodd;stroke-linejoin:round;stroke-miterlimit:2;">
    <g id="Capa-1" serif:id="Capa 1" transform="matrix(4.166667,0,0,4.166667,0,0)">
        <g transform="matrix(0,-1,-1,0,414.1264,0)">
            <path d="M-414.127,-414.127C-185.411,-414.127 0,-228.716 0,-0C0,228.715 -185.411,414.127 -414.127,414.127C-642.843,414.127 -828.255,228.715 -828.255,-0C-828.255,-228.716 -642.843,-414.127 -414.127,-414.127" style="fill:rgb(0,23,73);fill-rule:nonzero;"/>
        </g>
        <path d="M507.999,324.249L320.256,324.249L320.256,308.952L507.999,308.952L507.999,324.249ZM507.999,377.697L320.256,377.697L320.256,362.399L507.999,362.399L507.999,377.697ZM507.999,431.083L320.256,431.083L320.256,415.848L507.999,415.848L507.999,431.083ZM543.631,227.981L284.623,227.981C272.397,227.981 262.445,237.933 262.445,250.159L262.445,578.034C262.445,590.259 272.397,600.273 284.623,600.273L418.489,600.273C418.428,600.151 418.305,599.966 418.243,599.782C416.031,595.113 416.769,589.707 420.147,584.915L430.776,569.864L415.294,560.463C410.379,557.331 407.677,552.6 407.923,547.44C408.107,542.34 411.239,537.856 416.522,535.214L432.926,526.859L423.588,511.316C420.639,506.217 420.455,500.75 423.035,496.327C425.615,491.964 430.346,489.507 436.121,489.507L436.366,489.507L454.796,489.691L453.752,471.629C453.507,465.793 455.841,460.817 460.203,458.114C464.626,455.411 470.032,455.472 475.193,458.237L491.412,467.022L498.906,450.497C501.364,445.212 505.787,441.957 510.887,441.588C515.985,441.159 520.838,443.739 524.095,448.592L534.416,463.889L548.668,452.769C553.398,449.268 558.743,448.408 563.475,450.435C564.334,450.803 565.071,451.234 565.809,451.848L565.809,250.159C565.809,237.933 555.856,227.981 543.631,227.981" style="fill:white;fill-rule:nonzero;"/>
        <g transform="matrix(1,0,0,1,616.9922,566.2692)">
            <path d="M0,-28.213C3.904,-31.589 3.091,-35.69 -1.802,-37.323L-19.266,-43.166C-24.159,-44.799 -26.62,-50.067 -24.728,-54.865L-17.988,-72.006C-16.1,-76.806 -18.727,-80.066 -23.813,-79.237L-41.997,-76.294C-47.092,-75.467 -51.711,-78.992 -52.272,-84.116L-54.272,-102.429C-54.826,-107.559 -58.662,-109.214 -62.788,-106.12L-77.515,-95.061C-81.645,-91.966 -87.372,-92.938 -90.25,-97.219L-100.526,-112.503C-103.407,-116.784 -107.577,-116.475 -109.786,-111.812L-117.694,-95.176C-119.903,-90.52 -125.43,-88.714 -129.97,-91.168L-146.175,-99.925C-150.708,-102.379 -154.255,-100.162 -154.054,-95.01L-153.32,-76.604C-153.111,-71.452 -157.17,-67.285 -162.328,-67.351L-180.742,-67.573C-185.898,-67.639 -188.01,-64.033 -185.434,-59.565L-176.23,-43.605C-173.654,-39.137 -175.31,-33.567 -179.907,-31.221L-196.314,-22.867C-200.911,-20.522 -201.105,-16.348 -196.753,-13.592L-181.189,-3.741C-176.828,-0.979 -175.705,4.721 -178.685,8.937L-189.334,23.962C-192.313,28.171 -190.55,31.956 -185.405,32.373L-167.049,33.863C-161.904,34.28 -158.256,38.807 -158.947,43.923L-161.387,62.178C-162.069,67.286 -158.745,69.819 -153.996,67.805L-137.051,60.595C-132.309,58.573 -126.97,60.883 -125.199,65.732L-118.882,83.03C-117.111,87.873 -112.988,88.571 -109.729,84.578L-98.072,70.315C-94.806,66.322 -89.013,65.891 -85.192,69.359L-71.557,81.742C-67.735,85.211 -63.764,83.908 -62.728,78.857L-59.036,60.81C-58,55.759 -53.071,52.68 -48.077,53.981L-30.253,58.601C-25.253,59.896 -22.339,56.903 -23.777,51.946L-28.894,34.259C-30.325,29.301 -27.382,24.286 -22.36,23.112L-4.425,18.918C0.602,17.745 1.788,13.744 -1.784,10.024L-14.538,-3.267C-18.107,-6.993 -17.841,-12.8 -13.935,-16.168L0,-28.213Z" style="fill:rgb(5,195,222);fill-rule:nonzero;"/>
        </g>
        <g transform="matrix(1,0,0,1,594.6318,703.7282)">
            <path d="M0,-97.214L5.116,-79.527C6.548,-74.569 3.634,-71.575 -1.359,-72.871L-19.184,-77.497C-24.177,-78.793 -29.113,-75.713 -30.146,-70.662L-33.322,-55.155L18.817,2.647L22.947,-32.582L59.228,-33.792L-0.353,-99.861C-0.366,-98.99 -0.259,-98.106 0,-97.214" style="fill:rgb(5,195,222);fill-rule:nonzero;"/>
        </g>
        <g transform="matrix(1,0,0,1,473.4082,677.607)">
            <path d="M0,-43.67L-16.946,-36.46C-21.695,-34.439 -25.02,-36.971 -24.336,-42.087L-21.89,-60.342C-21.205,-65.451 -24.851,-69.977 -29.998,-70.395L-32.64,-70.61L-96.004,-13.463L-60.774,-9.332L-59.565,26.94L12.146,-37.727L11.851,-38.532C10.081,-43.382 4.749,-45.692 0,-43.67" style="fill:rgb(5,195,222);fill-rule:nonzero;"/>
        </g>
        <g transform="matrix(0,-1,-1,0,518.2797,502.0693)">
            <path d="M-50.024,-50.025C-22.397,-50.025 -0.001,-27.629 -0.001,-0.001C-0.001,27.626 -22.397,50.024 -50.024,50.024C-77.652,50.024 -100.048,27.626 -100.048,-0.001C-100.048,-27.629 -77.652,-50.025 -50.024,-50.025" style="fill:rgb(0,23,73);fill-rule:nonzero;"/>
        </g>
    </g>
</svg>
