<?xml version="1.0" encoding="UTF-8" standalone="no"?>
<!DOCTYPE svg PUBLIC "-//W3C//DTD SVG 1.1//EN" "http://www.w3.org/Graphics/SVG/1.1/DTD/svg11.dtd">
<svg width="100%" height="100%" viewBox="0 0 3452 3452" version="1.1" xmlns="http://www.w3.org/2000/svg" xmlns:xlink="http://www.w3.org/1999/xlink" xml:space="preserve" xmlns:serif="http://www.serif.com/" style="fill-rule:evenodd;clip-rule:evenodd;stroke-linecap:square;stroke-linejoin:round;stroke-miterlimit:22.926;">
    <g id="Capa-1" serif:id="Capa 1" transform="matrix(4.166667,0,0,4.166667,0,0)">
        <g>
            <g transform="matrix(1,0,0,1,829.5498,414.9747)">
                <path d="M0,-0.087C-0.022,-221.603 -183.618,-401.175 -410.105,-401.207L-410.193,-401.207C-636.693,-401.175 -820.295,-221.58 -820.295,-0.046C-820.295,221.493 -636.693,401.089 -410.193,401.12L-410.105,401.12C-183.618,401.089 -0.022,221.52 0,-0.001L0,-0.087Z" style="fill:none;fill-rule:nonzero;stroke:white;stroke-width:3.82px;"/>
            </g>
            <g transform="matrix(1,0,0,1,829.3828,414.8763)">
                <path d="M0,-0.097C-0.031,-221.621 -183.618,-401.198 -410.086,-401.221L-410.176,-401.221C-636.666,-401.198 -820.258,-221.599 -820.258,-0.051C-820.258,221.501 -636.666,401.101 -410.176,401.124L-410.086,401.124C-183.618,401.101 -0.031,221.523 0,-0.001L0,-0.097Z" style="fill:rgb(0,23,73);fill-rule:nonzero;"/>
            </g>
            <g transform="matrix(1,0,0,1,282.9961,572.6679)">
                <path d="M0,-427.29C0.01,-417.616 0.739,-419.486 1.847,-412.799C2.163,-410.907 2.117,-409.537 2.604,-407.653L10.585,-374.101C12.125,-368.297 14.478,-363.128 13.928,-356.807C6.962,-355.743 0.595,-354.186 -6.354,-352.829C-12.602,-351.769 -28.805,-346.701 -34.581,-344.078C-62.76,-331.261 -79.366,-318.072 -94.587,-292.967C-96.191,-290.317 -97.777,-288.033 -99.246,-285.673C-99.345,-285.506 -99.629,-285.005 -99.732,-284.843C-104.409,-277.732 -108,-269.385 -111.997,-261.698L-115.259,-256.192C-115.33,-256.064 -115.426,-255.902 -115.497,-255.782L-116.462,-254.25C-118.265,-251.177 -118.81,-248.942 -120.333,-245.445C-124.181,-236.606 -128.046,-230.234 -132.113,-220.58C-133.073,-218.299 -133.408,-218.416 -134.282,-216.574C-134.704,-215.678 -134.79,-215.258 -135.188,-214.316C-136.165,-211.996 -136.395,-209.671 -137.565,-207.657L-151.028,-177.632C-152.335,-174.91 -153.139,-171.895 -154.48,-169.102C-155.138,-167.732 -155.58,-166.15 -156.318,-164.579C-166.745,-142.353 -160.648,-114.336 -141.104,-99.169C-132.146,-92.214 -116.057,-77.638 -107.424,-71.943C-99.868,-66.963 -83.111,-52.198 -77.1,-48.288L-60.866,-37.046C-53.747,-32.311 -51.792,-26.413 -37.253,-20.127C-33.756,-18.618 -29.061,-18.707 -24.826,-18.839C-15.381,-19.137 -7.114,-22.578 0.393,-27.684C1.884,-28.697 3.006,-30.036 4.325,-30.729C8.701,-33.018 23.24,-18.631 27.557,-15.153L58.403,9.895C58.511,9.975 58.663,10.088 58.771,10.169C58.88,10.25 59.034,10.357 59.143,10.439L65.026,15.277C67.193,17.315 70.441,18.897 72.284,21.324C74.239,23.893 72.983,30.472 73.343,34.18C75.137,35.671 74.511,34.622 76.321,35.689L82.085,39.298C83.48,39.901 83.993,40.33 85.541,41.091C92.803,44.659 90.433,50.585 90.389,64.898L90.285,81.962C88.996,81.922 87.648,80.736 87.081,80.24L86.117,79.309C86.026,79.218 85.896,79.083 85.806,78.987L78.106,71.487C77.547,70.915 77.407,70.729 76.975,70.171C75.384,68.152 74.561,67.261 72.717,65.458C70.177,62.975 61.372,53.41 58.502,52.9C54.01,52.103 -127.924,52.788 -151.709,52.82C-152.03,56.995 -151.831,60.89 -151.868,64.913C-151.949,73.856 -150.854,71.23 -141.536,71.23L-72.924,71.23C-60.672,71.23 -64.024,69.94 -63.963,95.623L-63.89,111.081C-3.645,111.759 56.637,111.203 116.885,111.208L249.622,111.208C260.152,111.208 257.268,112.582 257.268,84.336C257.268,69.314 254.777,71.23 270.146,71.23L424.682,71.152L424.925,52.923C407.393,52.229 307.007,54.404 300.019,52.039L298.823,27.755C300.95,26.358 302.531,25.695 304.901,24.258C328.508,9.931 331.94,-8.687 342.452,-30.103C343.488,-32.081 343.105,-30.756 345.949,-34.086C348.115,-36.628 351.352,-38.447 353.82,-40.795C356.006,-42.872 364.999,-48.738 370.5,-54.573L389.707,-74.672C392.537,-78.508 391.402,-80.706 395.312,-83.554C397.745,-85.324 399.066,-86.419 400.921,-88.132C402.832,-89.889 404.283,-91.022 406.347,-92.871C408.64,-94.918 408.991,-95.408 411.93,-97.354C414.438,-99.012 414.813,-100.009 416.922,-101.922L421.941,-107.019C426.113,-110.805 431.29,-119.999 432.801,-125.884C435.085,-134.796 434.061,-143.996 433.034,-153.284C431.993,-162.736 414.33,-200.115 410.325,-209.459C408.229,-214.348 406.641,-218.669 404.314,-223.124C401.928,-227.702 399.954,-232.002 397.962,-236.976C396.385,-240.914 392.812,-245.734 391.112,-249.586C371.019,-289.371 376.754,-280.775 353.843,-312.253C346.922,-318.974 340.416,-325.575 332.631,-331.014C328.409,-333.965 324.651,-336.023 320.194,-338.274C307.34,-344.782 310.687,-342.637 299.307,-347.322L284.537,-352.18C279.527,-353.806 269.691,-356.095 264.267,-356.552C256.587,-357.199 261.197,-362.156 261.86,-366.636C266.329,-391.118 276.828,-420.049 271.425,-442.974C270.416,-447.259 267.622,-453.156 265.541,-456.675C263.766,-459.686 257.381,-467.557 254.544,-469.765L250.421,-473.188C244.541,-479.735 236.665,-479.664 232.186,-487.277C229.113,-492.501 225.089,-497.268 221.358,-501.88C220.488,-502.953 219.971,-504.098 219.312,-504.944C219.236,-505.044 219.115,-505.184 219.037,-505.273C218.956,-505.373 218.826,-505.503 218.744,-505.594L215.866,-508.373C215.132,-509.031 215.339,-508.801 214.474,-509.509L210.604,-513.199C208.828,-514.461 210.761,-513.068 209.039,-514.167C207.652,-515.051 207.431,-515.304 206.121,-516.39C196.885,-524.029 184.979,-528.991 173.824,-533.669C168.273,-535.992 155.211,-538.281 148.826,-538.826C136.495,-539.872 122.519,-539.44 110.605,-536.827C108.446,-536.353 109.2,-536.109 106.951,-535.494L99.151,-533.114C83.949,-527.693 81.629,-525.292 69.526,-517.596C59.938,-511.5 51.635,-501.684 44.678,-492.906C43.817,-491.823 43.268,-490.851 42.683,-489.805C41.457,-487.634 41.7,-488.368 40.646,-486.828C38.425,-483.574 39.195,-483.866 35.607,-481.695L23.947,-473.716C22.501,-472.584 23.781,-473.549 22.483,-472.712C22.361,-472.635 22.199,-472.54 22.083,-472.463L13.409,-463.893C3.912,-454.17 -0.013,-442.956 0,-427.29" style="fill:white;"/>
            </g>
            <g transform="matrix(1,0,0,1,442.2227,91.271)">
                <path d="M0,245.227C22.992,244.201 33.399,237.19 50.458,224.465C62.452,212.562 62.227,194.422 67.102,179.31C71.883,158.192 96.623,59.713 94.473,48.465C93.383,42.741 91.302,38.558 90.851,37.072C89.612,32.93 84.836,27.51 81.876,24.82C80.118,23.226 78.478,21.792 76.32,20.194C75.479,19.577 74.243,18.594 73.374,18.147C40.009,0.905 12.012,-1.43 -26.31,-1.367C-34.771,-1.352 -47.298,-1.523 -54.412,0.133C-58.776,1.158 -71.181,1.391 -80.53,4.189C-95.287,8.604 -96.791,7.104 -113.832,15.584L-118.722,18.336C-120.576,19.364 -121.843,20.442 -123.154,21.5C-125.497,23.388 -129.07,25.766 -130.846,28.298C-131.886,29.777 -132.504,30.547 -133.702,32.507C-134.874,34.417 -135.793,35.202 -136.748,37.004C-140.839,44.762 -141.763,57.933 -138.298,67.612L-133.904,85.692C-133.616,86.936 -133.57,87.396 -133.297,88.31C-132.867,89.729 -132.71,89.58 -132.45,91.165C-127.331,122.427 -114.377,154.755 -110.443,187.038C-107.037,215.059 -95.229,230.607 -66.829,240.465C-36.906,246.75 -30.607,246.593 0,245.227" style="fill:rgb(0,23,73);"/>
            </g>
            <g transform="matrix(1,0,0,1,491.5811,182.1323)">
                <path d="M0,76.815L2.802,68.236C6.849,54.116 9.98,36.526 13.575,21.779C14.472,17.301 14.976,2.918 13.558,-0.465C9.664,-1.839 -139.509,-0.803 -157.68,-0.975C-160.162,19.921 -154.836,31.718 -150.336,49.794C-149.133,55.247 -146.172,76.96 -141.785,77.541L-118.634,77.496C-105.166,77.496 -3.384,78.654 0,76.815" style="fill:rgb(29,32,69);"/>
            </g>
            <g transform="matrix(1,0,0,1,540.5439,376.329)">
                <path d="M0,132.294C1.591,127.758 4.767,127.244 9.475,126.429C21.117,124.405 31.788,127.721 34.455,127.802C37.456,127.888 37.356,127.218 39.366,125.681C49.733,117.733 60.016,108.519 70.252,100.07C78.921,92.916 88.514,101.107 79.84,108.794C74.483,113.538 59.83,125.686 54.839,128.178L45.038,133.659C44.431,138.07 51.644,145.757 34.662,163.69L26.452,170.098C24.871,170.868 23.137,171.34 21.491,172.206C15.175,175.54 7.895,178.347 1.208,180.446C-2.145,181.505 -4.853,181.745 -7.881,183.457C-12.963,186.331 -16.405,183.204 -15.332,190.908C-14.778,194.901 -14.009,199.204 -12.427,203.006L-7.692,212.636C-7.046,213.905 -6.723,214.961 -6.06,216.091C0.532,217.088 7.74,216.402 13.645,215.334C18.662,214.424 26.191,212.938 30.201,210.702C33.539,208.841 39.528,204.971 42.614,202.169C47.647,197.605 54.487,187.661 57.637,181.092L62.664,171.747C65.787,165.606 67.801,158.73 71.996,153.161C72.081,153.053 72.194,152.903 72.283,152.801C72.365,152.697 72.492,152.557 72.578,152.457C72.914,152.066 73.479,151.477 74.055,150.84C77.497,147.042 82.205,142.402 86.694,139.824L101.877,127.226C105.076,124.18 116.846,114.349 116.201,110.299C115.548,106.186 106.319,95.93 103.346,92.244C98.033,85.667 90.982,80.273 84.116,75.263C78.804,71.383 66.643,62.129 59.821,62.336C56.356,66.459 43.7,79.542 38.849,83.162C34.63,86.306 31.364,88.874 26.133,91.424C15.648,96.538 1.726,96.624 -6.447,105.864C-7.358,106.888 -7.889,107.492 -8.921,108.523C-9.777,109.389 -10.529,110.14 -11.26,111.173L-12.337,112.649C-15.458,116.903 -14.328,122.986 -15.126,128.289C-15.995,134.065 -19.955,142.68 -21.394,148.362C-25.286,152.211 -25.917,155.644 -29.994,159.37C-39.245,167.823 -32.873,168.67 -30.782,170.328L-31.315,171.15C-33.116,173.725 -32.855,172.732 -33.68,175.338C-34.913,176.937 -35.586,178.528 -36.779,180.304C-40.208,179.775 -41.245,178.641 -43.295,176.685C-47.851,172.332 -47.886,166.597 -46.179,161.212C-43.15,151.692 -34.811,150.588 -32.428,139.104L-26.786,120.196C-26.502,115.589 -27.057,115.417 -25.223,111.479C-19.446,99.075 -15.693,98.066 -5.619,90.419C2.789,84.036 9.521,85.672 16.803,82.206C29.381,76.214 35.713,69.576 45.021,59.708C58.921,44.971 68.445,36.626 89.045,32.635C97.691,30.962 108.56,33.319 115.678,36.321C114.164,37.996 116.079,38.298 108.78,37.775C94.597,36.761 79.503,41.164 70.482,51.824C71.708,52.733 72.744,52.883 74.226,53.63L87.455,62.516C88.729,63.191 88.44,63.097 89.519,63.674C93.758,65.963 96.741,68.612 100.368,71.965C102.878,74.276 104.851,76.091 106.811,78.223C108.839,80.431 111.28,82.214 113.24,84.463C114.651,86.076 123.063,97.818 125.455,97.899C127.425,97.361 128.015,96.448 129.492,95.223L140.649,85.478C145.051,81.58 145.795,84.44 154.318,71.279C162.293,58.97 156.842,43.128 150.763,31.643C143.096,11.689 132.236,-16.102 122.419,-32.954C118.949,-38.91 112.687,-53.181 109.001,-60.74L96.493,-82.845C95.159,-85.265 95.421,-84.72 93.875,-86.594C92.871,-87.816 93.537,-87.027 92.596,-88.405L88.342,-94.943C85.302,-99.887 79.754,-106.122 75.365,-109.919C51.635,-127.31 21.704,-143.704 -9.033,-143.599C-11.025,-140.126 -10.529,-136.45 -11.877,-132.616C-12.918,-129.659 -14.098,-125.122 -14.693,-121.663C-15.513,-116.881 -16.17,-114.583 -17.147,-110.141C-17.747,-107.419 -18.591,-100.611 -19.743,-98.286C-22.447,-92.839 -24.096,-68.689 -34.405,-56.838C-45.466,-44.119 -53.032,-41.376 -68.053,-34.055C-71.681,-32.756 -75.496,-31.981 -79.178,-31.021C-87.176,-28.927 -94.289,-27.404 -102.815,-26.746C-105.161,-26.564 -106.468,-26.259 -109.218,-26.213C-119.854,-26.033 -117.277,-26.448 -117.277,-9.623L-117.277,175.343C-117.277,197.362 -116.448,220.931 -117.317,242.756C-119.467,243.923 -121.941,245.432 -123.747,243.409C-125.333,241.634 -124.535,42.19 -124.432,7.934C-124.4,-2.356 -123.634,-16.036 -124.604,-25.938C-133.251,-26.993 -141.856,-26.979 -150.502,-28.301C-155.099,-29.003 -157.94,-29.651 -162.42,-30.499C-164.583,-30.908 -165.371,-31.54 -167.506,-32.265C-169.76,-33.04 -170.421,-33.153 -173.125,-33.819C-179.213,-35.324 -186.656,-39.475 -191.873,-42.908C-195.441,-45.259 -197.361,-46.246 -199.979,-48.805C-202.146,-50.919 -205.719,-53.171 -207.256,-55.978C-213.04,-66.565 -213.194,-64.296 -216.203,-75.032L-221.407,-96.088C-223.507,-105.577 -228.9,-133.044 -232.515,-141.784L-233.001,-142.789C-261.157,-145.605 -316.193,-118.016 -331.16,-93.69L-341.457,-77.42C-343.159,-74.668 -344.237,-71.658 -346.092,-68.738L-376.937,-6.836L-388.765,21.208C-390.157,24.614 -391.41,27.183 -392.451,30.958C-392.92,32.644 -393.552,34.008 -394.213,35.365C-396.574,40.164 -397.984,45.277 -399.151,50.685C-399.58,52.667 -399.517,54.807 -399.512,56.853C-399.497,61.39 -397.132,68.837 -394.695,72.519C-393.925,73.682 -393.203,75.227 -392.334,76.561C-390.807,78.908 -390.734,78.422 -388.946,80.146C-386.383,82.616 -384.575,83.923 -381.812,86.352C-379.47,88.41 -377.547,91.686 -374.076,91.812C-371.677,88.203 -372.767,75.001 -357.068,55.28C-350.535,47.061 -339.956,38.834 -330.58,34.14C-328.269,32.981 -327.493,33.585 -326.7,31.134C-333.392,26.574 -355.132,25.371 -363.133,27.34C-366.422,28.15 -379.614,34.666 -381.539,33.013C-382.296,32.45 -378.841,29.12 -363.715,23.705C-352.494,19.686 -333.279,20.14 -321.101,23.141L-307.137,27.831C-299.968,30.783 -293.367,35.636 -286.613,39.632L-271.89,49.089C-264.021,54.757 -258.655,57.42 -253.564,62.53L-246.621,68.184C-243.012,70.937 -236.394,78.255 -232.451,83.896C-231.324,85.513 -230.141,87.374 -228.923,89.216C-224.391,96.074 -223.187,101.512 -220.012,108.784C-217.239,115.125 -218.568,125.555 -224.187,130.083C-231.23,135.755 -229.473,134.634 -223.224,140.066C-215.226,147.024 -206.918,153.085 -198.951,160.252L-187.327,169.552C-186.529,170.232 -179.636,176.392 -179.176,176.608C-174.711,178.712 -176.811,166.637 -176.794,164.056C-176.767,159.672 -176.806,155.278 -176.806,150.89L-176.794,110.732C-176.653,106.014 -175.878,103.454 -173.513,100.61C-171.467,98.16 -168.628,96.458 -165.064,95.502C-151.044,91.735 -145.442,104.189 -145.437,115.777C-145.43,124.941 -146.145,177.811 -145.43,182.754C-144.843,186.8 -141.211,187.431 -138.013,189.003C-137.777,197.821 -137.832,206.648 -137.841,215.47C-137.855,234.416 -136.377,229.181 -145.592,235.097C-156.18,241.904 -155.157,235.925 -155.111,251.834C-155.089,260.417 -155.765,269.96 -154.499,277.899C-152.655,276.62 -152.891,277.554 -151.125,275.457C-148.362,272.183 -144.433,269.312 -141.388,266.171L-135.103,259.783C-130.397,255.349 -126.239,248.965 -120.827,248.803C-105.301,248.344 -112.543,250.153 -95.299,236.015L-63.436,210.788C-57.361,204.187 -49.872,198.763 -42.786,193.293C-40.434,191.473 -41.804,191.446 -38.185,190.508C-37.28,195.122 -35.311,198.807 -35.959,203.75L-79.231,239.156C-81.764,240.993 -88.226,245.959 -89.441,248.157C-82.832,250.244 -69.59,249.149 -62.431,249.149C-48.129,249.149 14.185,249.974 23.15,248.978C24.16,244.156 25.88,224.549 18.392,226.877C15.157,227.882 11.412,228.613 8.047,229.239C0.5,230.645 -10.111,229.311 -15.841,224.421C-17.54,222.972 -18.274,220.772 -19.37,218.583C-24.547,208.202 -30.232,195.51 -28.72,183.442C-28.326,180.32 -25.75,177.929 -23.731,176.217C-21.189,174.063 -18.856,173.337 -14.918,172.188C-6.33,169.683 6.456,166.408 13.72,162.663C17.883,160.514 18.05,161.369 21.812,158.031C25.583,154.675 32.314,149.61 32.852,142.955C28.931,143.469 26.218,146.744 22.714,148.768L21.906,149.272C19.172,151.003 7.646,156.076 4.101,156.049C4.879,153.994 4.982,154.009 8.119,151.565C11.706,148.777 19.014,141.707 22.91,140.924C23.429,137.399 24.303,137.427 19.726,137.417C16.432,137.414 12.458,137.297 10.029,138.27C9.444,142.383 1.112,156.715 0.176,157.54C-1.233,158.788 -8.758,161.379 -11.147,161.739C-16.882,162.609 -17.162,165.47 -22.835,165.47C-21.885,162.221 -20.275,162.519 -18.689,160.445C-11.548,151.11 -4.289,144.551 0,132.294" style="fill:rgb(0,23,73);"/>
            </g>
            <g transform="matrix(1,0,0,1,353.0596,203.4785)">
                <path d="M0,50.333L133.345,50.318C134.65,47.733 139.039,26.354 141.063,19.667L144.982,0.181L-11.626,0C-11.787,3.821 -1.122,48.05 0,50.333" style="fill:white;"/>
            </g>
            <g transform="matrix(1,0,0,1,267.1631,420.4431)">
                <path d="M0,110.511C-3.581,110.48 -5.222,110.574 -8.29,109.421C-18.513,105.573 -23.854,100.54 -27.584,90.317C-28.493,87.825 -28.534,84.563 -28.579,81.697C-28.81,65.694 -19.595,53.051 -2.743,49.564C10.77,46.761 16.248,51.666 26.069,58.688C29.062,61.548 32.099,65.927 33.27,70.546C34.981,77.295 34.046,83.271 39.678,77.9C43.169,74.574 40.785,63.083 37.988,58.943L30.354,45.661C25.35,38.699 18.068,33.573 13.688,29.449C2.736,21.497 -9.998,13.747 -20.541,5.808L-32.229,-1.518C-41.794,-7.047 -58.541,4.798 -65.967,11.562C-71.063,16.198 -75.36,20.632 -79.28,26.787C-84.035,34.266 -89.005,44.36 -87.905,56.655C-87.495,61.219 -77.104,68.206 -73.293,70.609L-62.448,78.795C-60.722,80.296 -59.447,81.666 -57.32,83.148C-49.566,88.529 -41.776,95.278 -35.433,99.999L-18.652,112.461C-13.827,115.571 -11.218,117.558 -4.501,114.747C-1.811,113.62 0.072,113.795 0,110.511" style="fill:rgb(29,32,69);"/>
            </g>
            <g transform="matrix(1,0,0,1,358.2002,209.4491)">
                <path d="M0,37.257L122.477,37.532C124.753,37.532 132.034,0.968 131.646,0.69L62.2,0.53C39.365,0.53 14.945,-0.275 -7.665,0.581C-8.654,4.232 -2.023,33.771 0,37.257" style="fill:rgb(29,32,69);"/>
            </g>
            <g transform="matrix(0.228375,0.973573,0.973573,-0.228375,392.231746,174.493519)">
                <path d="M59.222,-46.255C62.402,-35.76 86.276,65.421 85.619,68.129C84.461,69.964 62.349,80.696 59.222,80.703L29.229,-45.815C32.954,-47.004 53.487,-46.198 59.222,-46.255" style="fill:white;"/>
            </g>
            <g transform="matrix(1,0,0,1,341.7422,14.4242)">
                <path d="M0,33.819C5.58,34.067 4.251,33.275 7.649,32.326L31.937,28.052C44.964,26.204 81.131,24.986 95.684,26.4C99.878,26.808 126.052,29.31 128.878,30.303L145.154,33.664L139.157,26.077C137.855,24.701 139.21,25.731 137.253,24.453L132.501,20.793C128.982,17.922 131.112,17.689 124.576,14.235C121.661,12.694 119.111,11.186 116.073,9.512C103.847,2.777 86.248,-0.248 71.938,-0.22C63.616,-0.2 55.621,1.255 48.002,2.687L33.379,7.841C31.871,8.487 30.539,9.428 29.161,10.135L16.412,17.3C15.119,18.292 13.902,19.181 12.714,20.165C9.629,22.73 0.909,29.836 0,33.819" style="fill:rgb(29,32,69);"/>
            </g>
            <g transform="matrix(1,0,0,1,565.7402,347.3803)">
                <path d="M0,96.69C4.144,95.195 2.919,86.81 2.753,79.516C2.671,75.916 2.982,62.984 4.645,60.66C7.402,65.714 10.064,70.491 12.746,75.452C13.655,77.124 14.932,78.787 16.256,80.182C18.036,79.592 24.023,72.74 25.979,70.837L29.318,67.608C28.889,62.42 19.977,49.183 17.099,43.506C8.456,26.458 -3.055,8.637 -12.598,-7.984C-15.352,-5.528 -15.585,43.201 -15.626,46.913L-16.339,89.55C-16.339,92.045 -16.289,94.587 -16.329,97.079C-16.352,98.245 -16.496,99.796 -16.446,100.886C-16.344,103.193 -16.429,104.674 -13.445,104.35C-9.224,103.891 -3.042,99.242 0,96.69" style="fill:rgb(29,32,69);"/>
            </g>
            <g transform="matrix(1,0,0,1,244.6846,641.5139)">
                <path d="M0,23.74C34.328,22.993 77.701,25.141 109.659,23.65C109.654,20.655 109.834,22.023 105.893,17.931L90.654,3.379C88.518,1.748 85.648,2.356 82.098,2.366L11.558,2.384C-10.02,2.384 -7.259,-1.401 -7.073,18.685C-7.02,24.569 -5.203,23.857 0,23.74" style="fill:rgb(29,32,69);"/>
            </g>
            <g transform="matrix(1,0,0,1,404.8418,643.2385)">
                <path d="M0,21.534L112.391,21.578C116.688,21.578 116.468,20.704 116.431,16.275L116.273,0.75C87.329,-0.044 54.11,0.659 25.178,0.659C22.462,0.659 21.376,0.555 18.854,2.601L5.174,14.896C4.074,16.001 3.281,16.649 2.228,17.658C0.411,19.397 0.356,19.149 0,21.534" style="fill:rgb(29,32,69);"/>
            </g>
            <g transform="matrix(1,0,0,1,171.3105,514.4896)">
                <path d="M0,105.902C4.885,67.378 2.483,52.505 25.385,16.104L28.778,11.472L16.288,1.424C12.296,-1.577 10.219,3.394 5.022,11.108C-12.837,37.61 -16.4,70.825 -19.023,101.816C-19.055,107.479 -17.577,106.254 -11.904,106.177C-8.087,106.124 -3.699,106.469 0,105.902" style="fill:rgb(29,32,69);"/>
            </g>
            <g transform="matrix(1,0,0,1,250.127,367.2732)">
                <path d="M0,36.428L2.875,38.959C14.774,47.341 15.334,45.944 17.658,39.839C20.33,39.65 20.561,40.1 20.708,42.631C20.83,44.75 20.695,47.44 20.619,49.594C21.452,50.453 37.133,62.502 38.289,61.632C38.38,61.485 38.479,61.074 38.506,61.158L39.006,56.504C38.97,54.576 39.023,52.774 39.041,50.846L36.622,-26.074C35.001,-24.984 34.437,-23.807 33.157,-21.821C32.973,-21.538 32.527,-20.807 32.41,-20.618L8.578,20.04C5.764,24.479 1.101,31.84 0,36.428" style="fill:rgb(29,32,69);"/>
            </g>
            <g transform="matrix(1,0,0,1,339.9258,197.4571)">
                <path d="M0,-10.168C-0.157,0.174 -1.488,-0.15 11.224,-0.15L159.59,-0.241C160.391,-10.226 159.951,-10.113 153.598,-10.001L12.503,-10.006C6.812,-10.006 0.469,-10.342 0,-10.168" style="fill:white;"/>
            </g>
            <g transform="matrix(1,0,0,1,375.7402,596.3395)">
                <path d="M0,-104.859L0.015,-36.517C0.02,-31.912 1.114,-28.371 -2.419,-26.087C-7.623,-22.726 -7.574,-25.033 -7.605,-14.576L-7.466,3.61C-1.72,5.876 2.231,9.043 3.642,9.089C5.209,9.138 12.539,4.592 14.774,3.61C15,-1.108 15.95,-21.586 13.878,-24.046C12.094,-26.172 9.606,-26.389 7.426,-28.368L7.35,-102.98C7.345,-106.413 8.2,-112.213 4.767,-112.894C-0.801,-113.997 0,-106.905 0,-104.859" style="fill:rgb(29,32,69);"/>
            </g>
            <g transform="matrix(1,0,0,1,355.9873,513.279)">
                <path d="M0,50.931C-0.904,50.179 -1.856,49.688 -2.798,48.958L-17.68,36.536C-22.198,33.273 -26.015,28.921 -29.353,26.701L-79.033,-13.305C-79.155,-13.382 -79.308,-13.482 -79.425,-13.558L-83.476,-17.027C-88.36,-19.636 -95.723,-13.126 -87.882,-7.029C-83.71,-3.789 -80.115,-0.645 -76.37,3.014L-52.266,22.077C-41.992,31.885 -27.506,42.07 -16.644,51.81C-14.877,53.391 -12.367,54.941 -10.548,56.518C-1.211,64.587 1.82,70.567 0,50.931" style="fill:rgb(29,32,69);"/>
            </g>
            <g transform="matrix(0.935338,0.353756,0.353756,-0.935338,245.618191,613.673901)">
                <path d="M12.662,-2.336C19.841,0.636 29.422,2.039 28.963,6.248C22.946,25.351 18.468,55.698 12.662,71.189C11.691,70.344 -3.471,56.985 -3.499,56.925C-3.954,55.887 10.068,2.913 12.662,-2.336" style="fill:rgb(29,32,69);"/>
            </g>
            <g transform="matrix(1,0,0,1,370.6533,797.8071)">
                <path d="M0,-75.228C-0.797,-72.56 -1.775,-73.566 -2.969,-69.735C-3.018,-69.568 -3.05,-69.393 -3.104,-69.226L-22.839,-21.192C-23.254,-20.015 -24.077,-18.024 -24.708,-16.73C-25.642,-14.812 -25.718,-13.653 -26.614,-11.553C-28.674,-6.719 -31.562,-6.101 -24.745,-5.088C-21.842,-4.657 -18.414,-2.943 -15.233,-2.02C-8.264,0 -8.695,-2.115 -8.222,-7.368L-6.176,-24.22C-5.739,-27.354 -5.263,-26.868 -4.956,-29.815L-2.369,-51.164C-1.563,-55.011 -0.771,-51.419 -0.783,-57.355C-0.802,-66.621 2.19,-71.223 0,-75.228" style="fill:rgb(29,32,69);"/>
            </g>
            <g transform="matrix(1,0,0,1,278.0449,699.6458)">
                <path d="M0,28.571C1.671,28.092 7.127,26.439 8.935,25.656C18.184,21.636 16.6,21.924 25.938,18.558L42.794,11.823C46.35,10.732 48.233,9.737 51.743,8.503L60.218,4.924C61.461,4.433 62.871,3.78 64.209,3.185C65.975,2.396 67.161,2.375 68.468,1.37C65.72,0 9.917,7.466 -2.596,9.445C-5.277,9.867 -5.471,10.165 -5.187,12.999C-4.906,15.734 -1.326,26.854 0,28.571" style="fill:rgb(29,32,69);"/>
            </g>
            <g transform="matrix(1,0,0,1,412.7451,727.8806)">
                <path d="M0,-26.987C0.132,-26.896 0.365,-26.967 0.433,-26.784L38.402,-11.285C39.871,-10.546 41.3,-9.649 42.588,-9.185C45.34,-8.19 49.08,-7.144 51.541,-5.931C54.299,-4.571 67.166,1.778 69.152,-0.051L71.925,-8.649C72.497,-11.051 73.885,-16.096 73.799,-18.336C69.312,-18.601 51.526,-20.58 46.63,-21.891C43.024,-22.854 40.325,-22.233 36.911,-22.994C32.167,-24.053 3.213,-28.765 0,-26.987" style="fill:rgb(29,32,69);"/>
            </g>
            <g transform="matrix(1,0,0,1,397.2686,728.158)">
                <path d="M0,67.507C8.305,68.963 9.314,64.592 19.099,64.012C18.924,59.921 17.672,57.627 16.451,54.581C15.819,52.995 15.302,51.954 14.734,50.562L9.489,38.847C8.777,37.45 9.182,38.19 8.583,37.175C8.511,37.059 8.403,36.904 8.332,36.789L7.458,35.264C6.902,33.903 6.839,32.489 6.178,30.859C6.137,30.75 5.412,29.223 5.339,29.088C5.263,28.952 5.172,28.795 5.096,28.665C5.02,28.534 4.916,28.38 4.835,28.255C3.308,25.903 -1.609,11.53 -3.839,6.663L-6.217,0.801C-7.295,-1.456 -5.536,0.108 -7.646,-1.164C-9.461,1.653 -7.295,11.668 -6.744,15.796L-2.405,50.49C-2.122,55.982 -0.229,61.078 0,67.507" style="fill:rgb(29,32,69);"/>
            </g>
            <g transform="matrix(1,0,0,1,449.2539,717.5366)">
                <path d="M0,55.687C3.168,54.267 7.598,48.901 9.859,46.239C9.94,46.143 10.054,45.996 10.139,45.9C12.392,43.336 14.581,43.567 11.82,40.728C9.125,37.958 9.139,38.466 6.513,36.541L-40.09,1.908C-40.198,1.825 -40.328,1.704 -40.441,1.619L-42.698,0C-42.627,3.597 -39.459,6.502 -35.716,11.341C-34.719,12.625 -33.872,13.451 -32.732,14.743L-31.281,16.415C-31.2,16.518 -31.079,16.663 -30.998,16.761L-27.632,21.687C-23.434,26.86 -2.775,54.609 0,55.687" style="fill:rgb(29,32,69);"/>
            </g>
            <g transform="matrix(1,0,0,1,310.4258,718.6319)">
                <path d="M0,54.582L26.035,21.186C27.062,20.102 27.734,19.343 28.724,18.213C30.148,16.59 30.181,15.924 31.342,14.428C33.068,12.206 35.173,10.543 36.902,7.989C40.593,2.542 41.305,3.168 41.745,0C35.709,1.874 36.366,3.411 31.987,6.24C30.433,7.245 28.959,7.871 27.413,9.463C26.03,10.892 26.57,10.651 25.77,11.631C25.696,11.72 25.588,11.874 25.507,11.958L24.922,12.522C24.827,12.594 24.669,12.692 24.566,12.761C24.466,12.829 24.296,12.918 24.187,12.981C24.075,13.045 23.898,13.126 23.782,13.184C23.493,13.338 22.997,13.532 22.479,13.797C21.105,14.499 22.435,13.802 21.231,14.487C16.798,17.019 16.78,18.388 14.735,19.353C9.188,21.961 -7.446,35.456 -11.614,38.934C-14.688,41.512 -15.791,40.73 -10.965,45.336C-8.541,47.652 -7.979,47.319 -6.685,48.658C-6.239,49.117 -6.243,49.221 -5.869,49.68L-5.307,50.414C-3.311,52.789 -2.112,53.992 0,54.582" style="fill:rgb(29,32,69);"/>
            </g>
            <g transform="matrix(1,0,0,1,269.8623,476.406)">
                <path d="M0,48.929C-0.41,46.817 -2.1,45.933 -5.326,43.32L-16.216,34.007C-16.282,33.904 -16.383,33.741 -16.441,33.637C-17.97,31.011 -18.05,25.996 -17.945,23.198C-17.166,2.278 4.646,4.189 16.396,14.583C18.763,16.679 22.091,20.63 25.398,20.625C25.317,11.402 17.248,3.906 8.871,0.647C4.804,-0.939 -3.199,-1.592 -8.129,0.003C-24.321,5.266 -32.433,28.239 -19.271,40.675C-18.915,41.009 -18.635,41.284 -18.297,41.594L-14.229,45.105C-9.637,49.438 -2.279,50.521 0,48.929Z" style="fill:rgb(29,32,69);stroke:rgb(29,32,69);stroke-width:0.22px;stroke-linecap:butt;stroke-linejoin:miter;"/>
            </g>
            <g transform="matrix(1,0,0,1,306.7988,457.1652)">
                <path d="M0,-81.923L87.056,-81.923L87.056,-23.078L43.621,0L0,-23.078L0,-81.923Z" style="fill:white;stroke:rgb(29,32,69);stroke-width:0.57px;stroke-linecap:butt;stroke-linejoin:miter;"/>
            </g>
            <g transform="matrix(1,0,0,1,314.1709,447.7219)">
                <path d="M0,-64.383L72.312,-64.383L72.312,-18.136L36.229,0L0,-18.136L0,-64.383Z" style="fill:rgb(49,186,219);stroke:white;stroke-width:0.57px;stroke-linecap:butt;stroke-linejoin:miter;"/>
            </g>
            <g transform="matrix(1,0,0,1,0,-39.935)">
                <rect x="313.274" y="431.89" width="74.637" height="4.405" style="fill:rgb(29,32,69);"/>
            </g>
            <g transform="matrix(1,0,0,1,436.1436,457.1652)">
                <path d="M0,-81.923L87.054,-81.923L87.054,-23.078L43.619,0L0,-23.078L0,-81.923Z" style="fill:white;stroke:rgb(29,32,69);stroke-width:0.57px;stroke-linecap:butt;stroke-linejoin:miter;"/>
            </g>
            <g transform="matrix(1,0,0,1,443.5146,447.7219)">
                <path d="M0,-64.383L72.308,-64.383L72.308,-18.136L36.23,0L0,-18.136L0,-64.383Z" style="fill:rgb(49,186,219);stroke:white;stroke-width:0.57px;stroke-linecap:butt;stroke-linejoin:miter;"/>
            </g>
            <g transform="matrix(1,0,0,1,0,-39.935)">
                <rect x="442.618" y="431.89" width="74.632" height="4.405" style="fill:rgb(29,32,69);"/>
            </g>
            <g transform="matrix(-1,0,0,1,347.9541,166.5015)">
                <path d="M0,-19.979C-5.825,-19.979 -10.548,-15.509 -10.548,-9.989C-10.548,-4.475 -5.825,0 0,0C5.82,0 10.548,-4.475 10.548,-9.989C10.548,-15.509 5.82,-19.979 0,-19.979" style="fill:white;"/>
            </g>
            <g transform="matrix(-1,0,0,1,340.419,129.6715)">
                <path d="M0.001,-13.442C-3.918,-13.442 -7.095,-10.431 -7.095,-6.719C-7.095,-3.007 -3.918,0 0.001,0C3.917,0 7.096,-3.007 7.096,-6.719C7.096,-10.431 3.917,-13.442 0.001,-13.442" style="fill:rgb(49,186,219);"/>
            </g>
            <g transform="matrix(-1,0,0,1,495.6816,166.5015)">
                <path d="M0,-19.979C-5.826,-19.979 -10.548,-15.509 -10.548,-9.989C-10.548,-4.475 -5.826,0 0,0C5.827,0 10.548,-4.475 10.548,-9.989C10.548,-15.509 5.827,-19.979 0,-19.979" style="fill:white;"/>
            </g>
            <g transform="matrix(-1,0,0,1,493.8838,129.6715)">
                <path d="M-0.001,-13.442C-3.918,-13.442 -7.097,-10.431 -7.097,-6.719C-7.097,-3.007 -3.918,0 -0.001,0C3.922,0 7.096,-3.007 7.096,-6.719C7.096,-10.431 3.922,-13.442 -0.001,-13.442" style="fill:rgb(49,186,219);"/>
            </g>
            <g transform="matrix(-1,0,0,1,447.5255,166.5015)">
                <path d="M0.006,-19.979C-5.825,-19.979 -10.548,-15.509 -10.548,-9.989C-10.548,-4.475 -5.825,0 0.006,0C5.831,0 10.554,-4.475 10.554,-9.989C10.554,-15.509 5.831,-19.979 0.006,-19.979" style="fill:white;"/>
            </g>
            <g transform="matrix(-1,0,0,1,443.8565,129.6715)">
                <path d="M0.004,-13.442C-3.919,-13.442 -7.096,-10.431 -7.096,-6.719C-7.096,-3.007 -3.919,0 0.004,0C3.921,0 7.1,-3.007 7.1,-6.719C7.1,-10.431 3.921,-13.442 0.004,-13.442" style="fill:rgb(49,186,219);"/>
            </g>
            <g transform="matrix(-1,0,0,1,394.4385,166.5015)">
                <path d="M-0.001,-19.979C-5.822,-19.979 -10.548,-15.509 -10.548,-9.989C-10.548,-4.475 -5.822,0 -0.001,0C5.825,0 10.547,-4.475 10.547,-9.989C10.547,-15.509 5.825,-19.979 -0.001,-19.979" style="fill:white;"/>
            </g>
            <g transform="matrix(-1,0,0,1,388.709,129.6715)">
                <path d="M0,-13.442C-3.923,-13.442 -7.096,-10.431 -7.096,-6.719C-7.096,-3.007 -3.923,0 0,0C3.917,0 7.096,-3.007 7.096,-6.719C7.096,-10.431 3.917,-13.442 0,-13.442" style="fill:rgb(49,186,219);"/>
            </g>
        </g>
        <g>
            <g transform="matrix(1,0,0,1,829.5498,414.9747)">
                <path d="M0,-0.087C-0.022,-221.603 -183.618,-401.175 -410.105,-401.207L-410.193,-401.207C-636.693,-401.175 -820.295,-221.58 -820.295,-0.046C-820.295,221.493 -636.693,401.089 -410.193,401.12L-410.105,401.12C-183.618,401.089 -0.022,221.52 0,-0.001L0,-0.087Z" style="fill:none;fill-rule:nonzero;stroke:white;stroke-width:3.82px;"/>
            </g>
            <g transform="matrix(1,0,0,1,829.3828,414.8763)">
                <path d="M0,-0.097C-0.031,-221.621 -183.618,-401.198 -410.086,-401.221L-410.176,-401.221C-636.666,-401.198 -820.258,-221.599 -820.258,-0.051C-820.258,221.501 -636.666,401.101 -410.176,401.124L-410.086,401.124C-183.618,401.101 -0.031,221.523 0,-0.001L0,-0.097Z" style="fill:rgb(0,23,73);fill-rule:nonzero;"/>
            </g>
            <g transform="matrix(1,0,0,1,282.9961,572.6679)">
                <path d="M0,-427.29C0.01,-417.616 0.739,-419.486 1.847,-412.799C2.163,-410.907 2.117,-409.537 2.604,-407.653L10.585,-374.101C12.125,-368.297 14.478,-363.128 13.928,-356.807C6.962,-355.743 0.595,-354.186 -6.354,-352.829C-12.602,-351.769 -28.805,-346.701 -34.581,-344.078C-62.76,-331.261 -79.366,-318.072 -94.587,-292.967C-96.191,-290.317 -97.777,-288.033 -99.246,-285.673C-99.345,-285.506 -99.629,-285.005 -99.732,-284.843C-104.409,-277.732 -108,-269.385 -111.997,-261.698L-115.259,-256.192C-115.33,-256.064 -115.426,-255.902 -115.497,-255.782L-116.462,-254.25C-118.265,-251.177 -118.81,-248.942 -120.333,-245.445C-124.181,-236.606 -128.046,-230.234 -132.113,-220.58C-133.073,-218.299 -133.408,-218.416 -134.282,-216.574C-134.704,-215.678 -134.79,-215.258 -135.188,-214.316C-136.165,-211.996 -136.395,-209.671 -137.565,-207.657L-151.028,-177.632C-152.335,-174.91 -153.139,-171.895 -154.48,-169.102C-155.138,-167.732 -155.58,-166.15 -156.318,-164.579C-166.745,-142.353 -160.648,-114.336 -141.104,-99.169C-132.146,-92.214 -116.057,-77.638 -107.424,-71.943C-99.868,-66.963 -83.111,-52.198 -77.1,-48.288L-60.866,-37.046C-53.747,-32.311 -51.792,-26.413 -37.253,-20.127C-33.756,-18.618 -29.061,-18.707 -24.826,-18.839C-15.381,-19.137 -7.114,-22.578 0.393,-27.684C1.884,-28.697 3.006,-30.036 4.325,-30.729C8.701,-33.018 23.24,-18.631 27.557,-15.153L58.403,9.895C58.511,9.975 58.663,10.088 58.771,10.169C58.88,10.25 59.034,10.357 59.143,10.439L65.026,15.277C67.193,17.315 70.441,18.897 72.284,21.324C74.239,23.893 72.983,30.472 73.343,34.18C75.137,35.671 74.511,34.622 76.321,35.689L82.085,39.298C83.48,39.901 83.993,40.33 85.541,41.091C92.803,44.659 90.433,50.585 90.389,64.898L90.285,81.962C88.996,81.922 87.648,80.736 87.081,80.24L86.117,79.309C86.026,79.218 85.896,79.083 85.806,78.987L78.106,71.487C77.547,70.915 77.407,70.729 76.975,70.171C75.384,68.152 74.561,67.261 72.717,65.458C70.177,62.975 61.372,53.41 58.502,52.9C54.01,52.103 -127.924,52.788 -151.709,52.82C-152.03,56.995 -151.831,60.89 -151.868,64.913C-151.949,73.856 -150.854,71.23 -141.536,71.23L-72.924,71.23C-60.672,71.23 -64.024,69.94 -63.963,95.623L-63.89,111.081C-3.645,111.759 56.637,111.203 116.885,111.208L249.622,111.208C260.152,111.208 257.268,112.582 257.268,84.336C257.268,69.314 254.777,71.23 270.146,71.23L424.682,71.152L424.925,52.923C407.393,52.229 307.007,54.404 300.019,52.039L298.823,27.755C300.95,26.358 302.531,25.695 304.901,24.258C328.508,9.931 331.94,-8.687 342.452,-30.103C343.488,-32.081 343.105,-30.756 345.949,-34.086C348.115,-36.628 351.352,-38.447 353.82,-40.795C356.006,-42.872 364.999,-48.738 370.5,-54.573L389.707,-74.672C392.537,-78.508 391.402,-80.706 395.312,-83.554C397.745,-85.324 399.066,-86.419 400.921,-88.132C402.832,-89.889 404.283,-91.022 406.347,-92.871C408.64,-94.918 408.991,-95.408 411.93,-97.354C414.438,-99.012 414.813,-100.009 416.922,-101.922L421.941,-107.019C426.113,-110.805 431.29,-119.999 432.801,-125.884C435.085,-134.796 434.061,-143.996 433.034,-153.284C431.993,-162.736 414.33,-200.115 410.325,-209.459C408.229,-214.348 406.641,-218.669 404.314,-223.124C401.928,-227.702 399.954,-232.002 397.962,-236.976C396.385,-240.914 392.812,-245.734 391.112,-249.586C371.019,-289.371 376.754,-280.775 353.843,-312.253C346.922,-318.974 340.416,-325.575 332.631,-331.014C328.409,-333.965 324.651,-336.023 320.194,-338.274C307.34,-344.782 310.687,-342.637 299.307,-347.322L284.537,-352.18C279.527,-353.806 269.691,-356.095 264.267,-356.552C256.587,-357.199 261.197,-362.156 261.86,-366.636C266.329,-391.118 276.828,-420.049 271.425,-442.974C270.416,-447.259 267.622,-453.156 265.541,-456.675C263.766,-459.686 257.381,-467.557 254.544,-469.765L250.421,-473.188C244.541,-479.735 236.665,-479.664 232.186,-487.277C229.113,-492.501 225.089,-497.268 221.358,-501.88C220.488,-502.953 219.971,-504.098 219.312,-504.944C219.236,-505.044 219.115,-505.184 219.037,-505.273C218.956,-505.373 218.826,-505.503 218.744,-505.594L215.866,-508.373C215.132,-509.031 215.339,-508.801 214.474,-509.509L210.604,-513.199C208.828,-514.461 210.761,-513.068 209.039,-514.167C207.652,-515.051 207.431,-515.304 206.121,-516.39C196.885,-524.029 184.979,-528.991 173.824,-533.669C168.273,-535.992 155.211,-538.281 148.826,-538.826C136.495,-539.872 122.519,-539.44 110.605,-536.827C108.446,-536.353 109.2,-536.109 106.951,-535.494L99.151,-533.114C83.949,-527.693 81.629,-525.292 69.526,-517.596C59.938,-511.5 51.635,-501.684 44.678,-492.906C43.817,-491.823 43.268,-490.851 42.683,-489.805C41.457,-487.634 41.7,-488.368 40.646,-486.828C38.425,-483.574 39.195,-483.866 35.607,-481.695L23.947,-473.716C22.501,-472.584 23.781,-473.549 22.483,-472.712C22.361,-472.635 22.199,-472.54 22.083,-472.463L13.409,-463.893C3.912,-454.17 -0.013,-442.956 0,-427.29" style="fill:white;"/>
            </g>
            <g transform="matrix(1,0,0,1,442.2227,91.271)">
                <path d="M0,245.227C22.992,244.201 33.399,237.19 50.458,224.465C62.452,212.562 62.227,194.422 67.102,179.31C71.883,158.192 96.623,59.713 94.473,48.465C93.383,42.741 91.302,38.558 90.851,37.072C89.612,32.93 84.836,27.51 81.876,24.82C80.118,23.226 78.478,21.792 76.32,20.194C75.479,19.577 74.243,18.594 73.374,18.147C40.009,0.905 12.012,-1.43 -26.31,-1.367C-34.771,-1.352 -47.298,-1.523 -54.412,0.133C-58.776,1.158 -71.181,1.391 -80.53,4.189C-95.287,8.604 -96.791,7.104 -113.832,15.584L-118.722,18.336C-120.576,19.364 -121.843,20.442 -123.154,21.5C-125.497,23.388 -129.07,25.766 -130.846,28.298C-131.886,29.777 -132.504,30.547 -133.702,32.507C-134.874,34.417 -135.793,35.202 -136.748,37.004C-140.839,44.762 -141.763,57.933 -138.298,67.612L-133.904,85.692C-133.616,86.936 -133.57,87.396 -133.297,88.31C-132.867,89.729 -132.71,89.58 -132.45,91.165C-127.331,122.427 -114.377,154.755 -110.443,187.038C-107.037,215.059 -95.229,230.607 -66.829,240.465C-36.906,246.75 -30.607,246.593 0,245.227" style="fill:rgb(0,23,73);"/>
            </g>
            <g transform="matrix(1,0,0,1,491.5811,182.1323)">
                <path d="M0,76.815L2.802,68.236C6.849,54.116 9.98,36.526 13.575,21.779C14.472,17.301 14.976,2.918 13.558,-0.465C9.664,-1.839 -139.509,-0.803 -157.68,-0.975C-160.162,19.921 -154.836,31.718 -150.336,49.794C-149.133,55.247 -146.172,76.96 -141.785,77.541L-118.634,77.496C-105.166,77.496 -3.384,78.654 0,76.815" style="fill:rgb(29,32,69);"/>
            </g>
            <g transform="matrix(1,0,0,1,540.5439,376.329)">
                <path d="M0,132.294C1.591,127.758 4.767,127.244 9.475,126.429C21.117,124.405 31.788,127.721 34.455,127.802C37.456,127.888 37.356,127.218 39.366,125.681C49.733,117.733 60.016,108.519 70.252,100.07C78.921,92.916 88.514,101.107 79.84,108.794C74.483,113.538 59.83,125.686 54.839,128.178L45.038,133.659C44.431,138.07 51.644,145.757 34.662,163.69L26.452,170.098C24.871,170.868 23.137,171.34 21.491,172.206C15.175,175.54 7.895,178.347 1.208,180.446C-2.145,181.505 -4.853,181.745 -7.881,183.457C-12.963,186.331 -16.405,183.204 -15.332,190.908C-14.778,194.901 -14.009,199.204 -12.427,203.006L-7.692,212.636C-7.046,213.905 -6.723,214.961 -6.06,216.091C0.532,217.088 7.74,216.402 13.645,215.334C18.662,214.424 26.191,212.938 30.201,210.702C33.539,208.841 39.528,204.971 42.614,202.169C47.647,197.605 54.487,187.661 57.637,181.092L62.664,171.747C65.787,165.606 67.801,158.73 71.996,153.161C72.081,153.053 72.194,152.903 72.283,152.801C72.365,152.697 72.492,152.557 72.578,152.457C72.914,152.066 73.479,151.477 74.055,150.84C77.497,147.042 82.205,142.402 86.694,139.824L101.877,127.226C105.076,124.18 116.846,114.349 116.201,110.299C115.548,106.186 106.319,95.93 103.346,92.244C98.033,85.667 90.982,80.273 84.116,75.263C78.804,71.383 66.643,62.129 59.821,62.336C56.356,66.459 43.7,79.542 38.849,83.162C34.63,86.306 31.364,88.874 26.133,91.424C15.648,96.538 1.726,96.624 -6.447,105.864C-7.358,106.888 -7.889,107.492 -8.921,108.523C-9.777,109.389 -10.529,110.14 -11.26,111.173L-12.337,112.649C-15.458,116.903 -14.328,122.986 -15.126,128.289C-15.995,134.065 -19.955,142.68 -21.394,148.362C-25.286,152.211 -25.917,155.644 -29.994,159.37C-39.245,167.823 -32.873,168.67 -30.782,170.328L-31.315,171.15C-33.116,173.725 -32.855,172.732 -33.68,175.338C-34.913,176.937 -35.586,178.528 -36.779,180.304C-40.208,179.775 -41.245,178.641 -43.295,176.685C-47.851,172.332 -47.886,166.597 -46.179,161.212C-43.15,151.692 -34.811,150.588 -32.428,139.104L-26.786,120.196C-26.502,115.589 -27.057,115.417 -25.223,111.479C-19.446,99.075 -15.693,98.066 -5.619,90.419C2.789,84.036 9.521,85.672 16.803,82.206C29.381,76.214 35.713,69.576 45.021,59.708C58.921,44.971 68.445,36.626 89.045,32.635C97.691,30.962 108.56,33.319 115.678,36.321C114.164,37.996 116.079,38.298 108.78,37.775C94.597,36.761 79.503,41.164 70.482,51.824C71.708,52.733 72.744,52.883 74.226,53.63L87.455,62.516C88.729,63.191 88.44,63.097 89.519,63.674C93.758,65.963 96.741,68.612 100.368,71.965C102.878,74.276 104.851,76.091 106.811,78.223C108.839,80.431 111.28,82.214 113.24,84.463C114.651,86.076 123.063,97.818 125.455,97.899C127.425,97.361 128.015,96.448 129.492,95.223L140.649,85.478C145.051,81.58 145.795,84.44 154.318,71.279C162.293,58.97 156.842,43.128 150.763,31.643C143.096,11.689 132.236,-16.102 122.419,-32.954C118.949,-38.91 112.687,-53.181 109.001,-60.74L96.493,-82.845C95.159,-85.265 95.421,-84.72 93.875,-86.594C92.871,-87.816 93.537,-87.027 92.596,-88.405L88.342,-94.943C85.302,-99.887 79.754,-106.122 75.365,-109.919C51.635,-127.31 21.704,-143.704 -9.033,-143.599C-11.025,-140.126 -10.529,-136.45 -11.877,-132.616C-12.918,-129.659 -14.098,-125.122 -14.693,-121.663C-15.513,-116.881 -16.17,-114.583 -17.147,-110.141C-17.747,-107.419 -18.591,-100.611 -19.743,-98.286C-22.447,-92.839 -24.096,-68.689 -34.405,-56.838C-45.466,-44.119 -53.032,-41.376 -68.053,-34.055C-71.681,-32.756 -75.496,-31.981 -79.178,-31.021C-87.176,-28.927 -94.289,-27.404 -102.815,-26.746C-105.161,-26.564 -106.468,-26.259 -109.218,-26.213C-119.854,-26.033 -117.277,-26.448 -117.277,-9.623L-117.277,175.343C-117.277,197.362 -116.448,220.931 -117.317,242.756C-119.467,243.923 -121.941,245.432 -123.747,243.409C-125.333,241.634 -124.535,42.19 -124.432,7.934C-124.4,-2.356 -123.634,-16.036 -124.604,-25.938C-133.251,-26.993 -141.856,-26.979 -150.502,-28.301C-155.099,-29.003 -157.94,-29.651 -162.42,-30.499C-164.583,-30.908 -165.371,-31.54 -167.506,-32.265C-169.76,-33.04 -170.421,-33.153 -173.125,-33.819C-179.213,-35.324 -186.656,-39.475 -191.873,-42.908C-195.441,-45.259 -197.361,-46.246 -199.979,-48.805C-202.146,-50.919 -205.719,-53.171 -207.256,-55.978C-213.04,-66.565 -213.194,-64.296 -216.203,-75.032L-221.407,-96.088C-223.507,-105.577 -228.9,-133.044 -232.515,-141.784L-233.001,-142.789C-261.157,-145.605 -316.193,-118.016 -331.16,-93.69L-341.457,-77.42C-343.159,-74.668 -344.237,-71.658 -346.092,-68.738L-376.937,-6.836L-388.765,21.208C-390.157,24.614 -391.41,27.183 -392.451,30.958C-392.92,32.644 -393.552,34.008 -394.213,35.365C-396.574,40.164 -397.984,45.277 -399.151,50.685C-399.58,52.667 -399.517,54.807 -399.512,56.853C-399.497,61.39 -397.132,68.837 -394.695,72.519C-393.925,73.682 -393.203,75.227 -392.334,76.561C-390.807,78.908 -390.734,78.422 -388.946,80.146C-386.383,82.616 -384.575,83.923 -381.812,86.352C-379.47,88.41 -377.547,91.686 -374.076,91.812C-371.677,88.203 -372.767,75.001 -357.068,55.28C-350.535,47.061 -339.956,38.834 -330.58,34.14C-328.269,32.981 -327.493,33.585 -326.7,31.134C-333.392,26.574 -355.132,25.371 -363.133,27.34C-366.422,28.15 -379.614,34.666 -381.539,33.013C-382.296,32.45 -378.841,29.12 -363.715,23.705C-352.494,19.686 -333.279,20.14 -321.101,23.141L-307.137,27.831C-299.968,30.783 -293.367,35.636 -286.613,39.632L-271.89,49.089C-264.021,54.757 -258.655,57.42 -253.564,62.53L-246.621,68.184C-243.012,70.937 -236.394,78.255 -232.451,83.896C-231.324,85.513 -230.141,87.374 -228.923,89.216C-224.391,96.074 -223.187,101.512 -220.012,108.784C-217.239,115.125 -218.568,125.555 -224.187,130.083C-231.23,135.755 -229.473,134.634 -223.224,140.066C-215.226,147.024 -206.918,153.085 -198.951,160.252L-187.327,169.552C-186.529,170.232 -179.636,176.392 -179.176,176.608C-174.711,178.712 -176.811,166.637 -176.794,164.056C-176.767,159.672 -176.806,155.278 -176.806,150.89L-176.794,110.732C-176.653,106.014 -175.878,103.454 -173.513,100.61C-171.467,98.16 -168.628,96.458 -165.064,95.502C-151.044,91.735 -145.442,104.189 -145.437,115.777C-145.43,124.941 -146.145,177.811 -145.43,182.754C-144.843,186.8 -141.211,187.431 -138.013,189.003C-137.777,197.821 -137.832,206.648 -137.841,215.47C-137.855,234.416 -136.377,229.181 -145.592,235.097C-156.18,241.904 -155.157,235.925 -155.111,251.834C-155.089,260.417 -155.765,269.96 -154.499,277.899C-152.655,276.62 -152.891,277.554 -151.125,275.457C-148.362,272.183 -144.433,269.312 -141.388,266.171L-135.103,259.783C-130.397,255.349 -126.239,248.965 -120.827,248.803C-105.301,248.344 -112.543,250.153 -95.299,236.015L-63.436,210.788C-57.361,204.187 -49.872,198.763 -42.786,193.293C-40.434,191.473 -41.804,191.446 -38.185,190.508C-37.28,195.122 -35.311,198.807 -35.959,203.75L-79.231,239.156C-81.764,240.993 -88.226,245.959 -89.441,248.157C-82.832,250.244 -69.59,249.149 -62.431,249.149C-48.129,249.149 14.185,249.974 23.15,248.978C24.16,244.156 25.88,224.549 18.392,226.877C15.157,227.882 11.412,228.613 8.047,229.239C0.5,230.645 -10.111,229.311 -15.841,224.421C-17.54,222.972 -18.274,220.772 -19.37,218.583C-24.547,208.202 -30.232,195.51 -28.72,183.442C-28.326,180.32 -25.75,177.929 -23.731,176.217C-21.189,174.063 -18.856,173.337 -14.918,172.188C-6.33,169.683 6.456,166.408 13.72,162.663C17.883,160.514 18.05,161.369 21.812,158.031C25.583,154.675 32.314,149.61 32.852,142.955C28.931,143.469 26.218,146.744 22.714,148.768L21.906,149.272C19.172,151.003 7.646,156.076 4.101,156.049C4.879,153.994 4.982,154.009 8.119,151.565C11.706,148.777 19.014,141.707 22.91,140.924C23.429,137.399 24.303,137.427 19.726,137.417C16.432,137.414 12.458,137.297 10.029,138.27C9.444,142.383 1.112,156.715 0.176,157.54C-1.233,158.788 -8.758,161.379 -11.147,161.739C-16.882,162.609 -17.162,165.47 -22.835,165.47C-21.885,162.221 -20.275,162.519 -18.689,160.445C-11.548,151.11 -4.289,144.551 0,132.294" style="fill:rgb(0,23,73);"/>
            </g>
            <g transform="matrix(1,0,0,1,353.0596,203.4785)">
                <path d="M0,50.333L133.345,50.318C134.65,47.733 139.039,26.354 141.063,19.667L144.982,0.181L-11.626,0C-11.787,3.821 -1.122,48.05 0,50.333" style="fill:white;"/>
            </g>
            <g transform="matrix(1,0,0,1,267.1631,420.4431)">
                <path d="M0,110.511C-3.581,110.48 -5.222,110.574 -8.29,109.421C-18.513,105.573 -23.854,100.54 -27.584,90.317C-28.493,87.825 -28.534,84.563 -28.579,81.697C-28.81,65.694 -19.595,53.051 -2.743,49.564C10.77,46.761 16.248,51.666 26.069,58.688C29.062,61.548 32.099,65.927 33.27,70.546C34.981,77.295 34.046,83.271 39.678,77.9C43.169,74.574 40.785,63.083 37.988,58.943L30.354,45.661C25.35,38.699 18.068,33.573 13.688,29.449C2.736,21.497 -9.998,13.747 -20.541,5.808L-32.229,-1.518C-41.794,-7.047 -58.541,4.798 -65.967,11.562C-71.063,16.198 -75.36,20.632 -79.28,26.787C-84.035,34.266 -89.005,44.36 -87.905,56.655C-87.495,61.219 -77.104,68.206 -73.293,70.609L-62.448,78.795C-60.722,80.296 -59.447,81.666 -57.32,83.148C-49.566,88.529 -41.776,95.278 -35.433,99.999L-18.652,112.461C-13.827,115.571 -11.218,117.558 -4.501,114.747C-1.811,113.62 0.072,113.795 0,110.511" style="fill:rgb(29,32,69);"/>
            </g>
            <g transform="matrix(1,0,0,1,358.2002,209.4491)">
                <path d="M0,37.257L122.477,37.532C124.753,37.532 132.034,0.968 131.646,0.69L62.2,0.53C39.365,0.53 14.945,-0.275 -7.665,0.581C-8.654,4.232 -2.023,33.771 0,37.257" style="fill:rgb(29,32,69);"/>
            </g>
            <g transform="matrix(0.228375,0.973573,0.973573,-0.228375,392.231746,174.493519)">
                <path d="M59.222,-46.255C62.402,-35.76 86.276,65.421 85.619,68.129C84.461,69.964 62.349,80.696 59.222,80.703L29.229,-45.815C32.954,-47.004 53.487,-46.198 59.222,-46.255" style="fill:white;"/>
            </g>
            <g transform="matrix(1,0,0,1,341.7422,14.4242)">
                <path d="M0,33.819C5.58,34.067 4.251,33.275 7.649,32.326L31.937,28.052C44.964,26.204 81.131,24.986 95.684,26.4C99.878,26.808 126.052,29.31 128.878,30.303L145.154,33.664L139.157,26.077C137.855,24.701 139.21,25.731 137.253,24.453L132.501,20.793C128.982,17.922 131.112,17.689 124.576,14.235C121.661,12.694 119.111,11.186 116.073,9.512C103.847,2.777 86.248,-0.248 71.938,-0.22C63.616,-0.2 55.621,1.255 48.002,2.687L33.379,7.841C31.871,8.487 30.539,9.428 29.161,10.135L16.412,17.3C15.119,18.292 13.902,19.181 12.714,20.165C9.629,22.73 0.909,29.836 0,33.819" style="fill:rgb(29,32,69);"/>
            </g>
            <g transform="matrix(1,0,0,1,565.7402,347.3803)">
                <path d="M0,96.69C4.144,95.195 2.919,86.81 2.753,79.516C2.671,75.916 2.982,62.984 4.645,60.66C7.402,65.714 10.064,70.491 12.746,75.452C13.655,77.124 14.932,78.787 16.256,80.182C18.036,79.592 24.023,72.74 25.979,70.837L29.318,67.608C28.889,62.42 19.977,49.183 17.099,43.506C8.456,26.458 -3.055,8.637 -12.598,-7.984C-15.352,-5.528 -15.585,43.201 -15.626,46.913L-16.339,89.55C-16.339,92.045 -16.289,94.587 -16.329,97.079C-16.352,98.245 -16.496,99.796 -16.446,100.886C-16.344,103.193 -16.429,104.674 -13.445,104.35C-9.224,103.891 -3.042,99.242 0,96.69" style="fill:rgb(29,32,69);"/>
            </g>
            <g transform="matrix(1,0,0,1,244.6846,641.5139)">
                <path d="M0,23.74C34.328,22.993 77.701,25.141 109.659,23.65C109.654,20.655 109.834,22.023 105.893,17.931L90.654,3.379C88.518,1.748 85.648,2.356 82.098,2.366L11.558,2.384C-10.02,2.384 -7.259,-1.401 -7.073,18.685C-7.02,24.569 -5.203,23.857 0,23.74" style="fill:rgb(29,32,69);"/>
            </g>
            <g transform="matrix(1,0,0,1,404.8418,643.2385)">
                <path d="M0,21.534L112.391,21.578C116.688,21.578 116.468,20.704 116.431,16.275L116.273,0.75C87.329,-0.044 54.11,0.659 25.178,0.659C22.462,0.659 21.376,0.555 18.854,2.601L5.174,14.896C4.074,16.001 3.281,16.649 2.228,17.658C0.411,19.397 0.356,19.149 0,21.534" style="fill:rgb(29,32,69);"/>
            </g>
            <g transform="matrix(1,0,0,1,171.3105,514.4896)">
                <path d="M0,105.902C4.885,67.378 2.483,52.505 25.385,16.104L28.778,11.472L16.288,1.424C12.296,-1.577 10.219,3.394 5.022,11.108C-12.837,37.61 -16.4,70.825 -19.023,101.816C-19.055,107.479 -17.577,106.254 -11.904,106.177C-8.087,106.124 -3.699,106.469 0,105.902" style="fill:rgb(29,32,69);"/>
            </g>
            <g transform="matrix(1,0,0,1,250.127,367.2732)">
                <path d="M0,36.428L2.875,38.959C14.774,47.341 15.334,45.944 17.658,39.839C20.33,39.65 20.561,40.1 20.708,42.631C20.83,44.75 20.695,47.44 20.619,49.594C21.452,50.453 37.133,62.502 38.289,61.632C38.38,61.485 38.479,61.074 38.506,61.158L39.006,56.504C38.97,54.576 39.023,52.774 39.041,50.846L36.622,-26.074C35.001,-24.984 34.437,-23.807 33.157,-21.821C32.973,-21.538 32.527,-20.807 32.41,-20.618L8.578,20.04C5.764,24.479 1.101,31.84 0,36.428" style="fill:rgb(29,32,69);"/>
            </g>
            <g transform="matrix(1,0,0,1,339.9258,197.4571)">
                <path d="M0,-10.168C-0.157,0.174 -1.488,-0.15 11.224,-0.15L159.59,-0.241C160.391,-10.226 159.951,-10.113 153.598,-10.001L12.503,-10.006C6.812,-10.006 0.469,-10.342 0,-10.168" style="fill:white;"/>
            </g>
            <g transform="matrix(1,0,0,1,375.7402,596.3395)">
                <path d="M0,-104.859L0.015,-36.517C0.02,-31.912 1.114,-28.371 -2.419,-26.087C-7.623,-22.726 -7.574,-25.033 -7.605,-14.576L-7.466,3.61C-1.72,5.876 2.231,9.043 3.642,9.089C5.209,9.138 12.539,4.592 14.774,3.61C15,-1.108 15.95,-21.586 13.878,-24.046C12.094,-26.172 9.606,-26.389 7.426,-28.368L7.35,-102.98C7.345,-106.413 8.2,-112.213 4.767,-112.894C-0.801,-113.997 0,-106.905 0,-104.859" style="fill:rgb(29,32,69);"/>
            </g>
            <g transform="matrix(1,0,0,1,355.9873,513.279)">
                <path d="M0,50.931C-0.904,50.179 -1.856,49.688 -2.798,48.958L-17.68,36.536C-22.198,33.273 -26.015,28.921 -29.353,26.701L-79.033,-13.305C-79.155,-13.382 -79.308,-13.482 -79.425,-13.558L-83.476,-17.027C-88.36,-19.636 -95.723,-13.126 -87.882,-7.029C-83.71,-3.789 -80.115,-0.645 -76.37,3.014L-52.266,22.077C-41.992,31.885 -27.506,42.07 -16.644,51.81C-14.877,53.391 -12.367,54.941 -10.548,56.518C-1.211,64.587 1.82,70.567 0,50.931" style="fill:rgb(29,32,69);"/>
            </g>
            <g transform="matrix(0.935338,0.353756,0.353756,-0.935338,245.618191,613.673901)">
                <path d="M12.662,-2.336C19.841,0.636 29.422,2.039 28.963,6.248C22.946,25.351 18.468,55.698 12.662,71.189C11.691,70.344 -3.471,56.985 -3.499,56.925C-3.954,55.887 10.068,2.913 12.662,-2.336" style="fill:rgb(29,32,69);"/>
            </g>
            <g transform="matrix(1,0,0,1,370.6533,797.8071)">
                <path d="M0,-75.228C-0.797,-72.56 -1.775,-73.566 -2.969,-69.735C-3.018,-69.568 -3.05,-69.393 -3.104,-69.226L-22.839,-21.192C-23.254,-20.015 -24.077,-18.024 -24.708,-16.73C-25.642,-14.812 -25.718,-13.653 -26.614,-11.553C-28.674,-6.719 -31.562,-6.101 -24.745,-5.088C-21.842,-4.657 -18.414,-2.943 -15.233,-2.02C-8.264,0 -8.695,-2.115 -8.222,-7.368L-6.176,-24.22C-5.739,-27.354 -5.263,-26.868 -4.956,-29.815L-2.369,-51.164C-1.563,-55.011 -0.771,-51.419 -0.783,-57.355C-0.802,-66.621 2.19,-71.223 0,-75.228" style="fill:rgb(29,32,69);"/>
            </g>
            <g transform="matrix(1,0,0,1,278.0449,699.6458)">
                <path d="M0,28.571C1.671,28.092 7.127,26.439 8.935,25.656C18.184,21.636 16.6,21.924 25.938,18.558L42.794,11.823C46.35,10.732 48.233,9.737 51.743,8.503L60.218,4.924C61.461,4.433 62.871,3.78 64.209,3.185C65.975,2.396 67.161,2.375 68.468,1.37C65.72,0 9.917,7.466 -2.596,9.445C-5.277,9.867 -5.471,10.165 -5.187,12.999C-4.906,15.734 -1.326,26.854 0,28.571" style="fill:rgb(29,32,69);"/>
            </g>
            <g transform="matrix(1,0,0,1,412.7451,727.8806)">
                <path d="M0,-26.987C0.132,-26.896 0.365,-26.967 0.433,-26.784L38.402,-11.285C39.871,-10.546 41.3,-9.649 42.588,-9.185C45.34,-8.19 49.08,-7.144 51.541,-5.931C54.299,-4.571 67.166,1.778 69.152,-0.051L71.925,-8.649C72.497,-11.051 73.885,-16.096 73.799,-18.336C69.312,-18.601 51.526,-20.58 46.63,-21.891C43.024,-22.854 40.325,-22.233 36.911,-22.994C32.167,-24.053 3.213,-28.765 0,-26.987" style="fill:rgb(29,32,69);"/>
            </g>
            <g transform="matrix(1,0,0,1,397.2686,728.158)">
                <path d="M0,67.507C8.305,68.963 9.314,64.592 19.099,64.012C18.924,59.921 17.672,57.627 16.451,54.581C15.819,52.995 15.302,51.954 14.734,50.562L9.489,38.847C8.777,37.45 9.182,38.19 8.583,37.175C8.511,37.059 8.403,36.904 8.332,36.789L7.458,35.264C6.902,33.903 6.839,32.489 6.178,30.859C6.137,30.75 5.412,29.223 5.339,29.088C5.263,28.952 5.172,28.795 5.096,28.665C5.02,28.534 4.916,28.38 4.835,28.255C3.308,25.903 -1.609,11.53 -3.839,6.663L-6.217,0.801C-7.295,-1.456 -5.536,0.108 -7.646,-1.164C-9.461,1.653 -7.295,11.668 -6.744,15.796L-2.405,50.49C-2.122,55.982 -0.229,61.078 0,67.507" style="fill:rgb(29,32,69);"/>
            </g>
            <g transform="matrix(1,0,0,1,449.2539,717.5366)">
                <path d="M0,55.687C3.168,54.267 7.598,48.901 9.859,46.239C9.94,46.143 10.054,45.996 10.139,45.9C12.392,43.336 14.581,43.567 11.82,40.728C9.125,37.958 9.139,38.466 6.513,36.541L-40.09,1.908C-40.198,1.825 -40.328,1.704 -40.441,1.619L-42.698,0C-42.627,3.597 -39.459,6.502 -35.716,11.341C-34.719,12.625 -33.872,13.451 -32.732,14.743L-31.281,16.415C-31.2,16.518 -31.079,16.663 -30.998,16.761L-27.632,21.687C-23.434,26.86 -2.775,54.609 0,55.687" style="fill:rgb(29,32,69);"/>
            </g>
            <g transform="matrix(1,0,0,1,310.4258,718.6319)">
                <path d="M0,54.582L26.035,21.186C27.062,20.102 27.734,19.343 28.724,18.213C30.148,16.59 30.181,15.924 31.342,14.428C33.068,12.206 35.173,10.543 36.902,7.989C40.593,2.542 41.305,3.168 41.745,0C35.709,1.874 36.366,3.411 31.987,6.24C30.433,7.245 28.959,7.871 27.413,9.463C26.03,10.892 26.57,10.651 25.77,11.631C25.696,11.72 25.588,11.874 25.507,11.958L24.922,12.522C24.827,12.594 24.669,12.692 24.566,12.761C24.466,12.829 24.296,12.918 24.187,12.981C24.075,13.045 23.898,13.126 23.782,13.184C23.493,13.338 22.997,13.532 22.479,13.797C21.105,14.499 22.435,13.802 21.231,14.487C16.798,17.019 16.78,18.388 14.735,19.353C9.188,21.961 -7.446,35.456 -11.614,38.934C-14.688,41.512 -15.791,40.73 -10.965,45.336C-8.541,47.652 -7.979,47.319 -6.685,48.658C-6.239,49.117 -6.243,49.221 -5.869,49.68L-5.307,50.414C-3.311,52.789 -2.112,53.992 0,54.582" style="fill:rgb(29,32,69);"/>
            </g>
            <g transform="matrix(1,0,0,1,269.8623,476.406)">
                <path d="M0,48.929C-0.41,46.817 -2.1,45.933 -5.326,43.32L-16.216,34.007C-16.282,33.904 -16.383,33.741 -16.441,33.637C-17.97,31.011 -18.05,25.996 -17.945,23.198C-17.166,2.278 4.646,4.189 16.396,14.583C18.763,16.679 22.091,20.63 25.398,20.625C25.317,11.402 17.248,3.906 8.871,0.647C4.804,-0.939 -3.199,-1.592 -8.129,0.003C-24.321,5.266 -32.433,28.239 -19.271,40.675C-18.915,41.009 -18.635,41.284 -18.297,41.594L-14.229,45.105C-9.637,49.438 -2.279,50.521 0,48.929Z" style="fill:rgb(29,32,69);stroke:rgb(29,32,69);stroke-width:0.22px;stroke-linecap:butt;stroke-linejoin:miter;"/>
            </g>
            <g transform="matrix(1,0,0,1,306.7988,457.1652)">
                <path d="M0,-81.923L87.056,-81.923L87.056,-23.078L43.621,0L0,-23.078L0,-81.923Z" style="fill:white;stroke:rgb(29,32,69);stroke-width:0.57px;stroke-linecap:butt;stroke-linejoin:miter;"/>
            </g>
            <g transform="matrix(1,0,0,1,314.1709,447.7219)">
                <path d="M0,-64.383L72.312,-64.383L72.312,-18.136L36.229,0L0,-18.136L0,-64.383Z" style="fill:rgb(49,186,219);stroke:white;stroke-width:0.57px;stroke-linecap:butt;stroke-linejoin:miter;"/>
            </g>
            <g transform="matrix(1,0,0,1,0,-39.935)">
                <rect x="313.274" y="431.89" width="74.637" height="4.405" style="fill:rgb(29,32,69);"/>
            </g>
            <g transform="matrix(1,0,0,1,436.1436,457.1652)">
                <path d="M0,-81.923L87.054,-81.923L87.054,-23.078L43.619,0L0,-23.078L0,-81.923Z" style="fill:white;stroke:rgb(29,32,69);stroke-width:0.57px;stroke-linecap:butt;stroke-linejoin:miter;"/>
            </g>
            <g transform="matrix(1,0,0,1,443.5146,447.7219)">
                <path d="M0,-64.383L72.308,-64.383L72.308,-18.136L36.23,0L0,-18.136L0,-64.383Z" style="fill:rgb(49,186,219);stroke:white;stroke-width:0.57px;stroke-linecap:butt;stroke-linejoin:miter;"/>
            </g>
            <g transform="matrix(1,0,0,1,0,-39.935)">
                <rect x="442.618" y="431.89" width="74.632" height="4.405" style="fill:rgb(29,32,69);"/>
            </g>
            <g transform="matrix(-1,0,0,1,347.9541,166.5015)">
                <path d="M0,-19.979C-5.825,-19.979 -10.548,-15.509 -10.548,-9.989C-10.548,-4.475 -5.825,0 0,0C5.82,0 10.548,-4.475 10.548,-9.989C10.548,-15.509 5.82,-19.979 0,-19.979" style="fill:white;"/>
            </g>
            <g transform="matrix(-1,0,0,1,340.419,129.6715)">
                <path d="M0.001,-13.442C-3.918,-13.442 -7.095,-10.431 -7.095,-6.719C-7.095,-3.007 -3.918,0 0.001,0C3.917,0 7.096,-3.007 7.096,-6.719C7.096,-10.431 3.917,-13.442 0.001,-13.442" style="fill:rgb(49,186,219);"/>
            </g>
            <g transform="matrix(-1,0,0,1,495.6816,166.5015)">
                <path d="M0,-19.979C-5.826,-19.979 -10.548,-15.509 -10.548,-9.989C-10.548,-4.475 -5.826,0 0,0C5.827,0 10.548,-4.475 10.548,-9.989C10.548,-15.509 5.827,-19.979 0,-19.979" style="fill:white;"/>
            </g>
            <g transform="matrix(-1,0,0,1,493.8838,129.6715)">
                <path d="M-0.001,-13.442C-3.918,-13.442 -7.097,-10.431 -7.097,-6.719C-7.097,-3.007 -3.918,0 -0.001,0C3.922,0 7.096,-3.007 7.096,-6.719C7.096,-10.431 3.922,-13.442 -0.001,-13.442" style="fill:rgb(49,186,219);"/>
            </g>
            <g transform="matrix(-1,0,0,1,447.5255,166.5015)">
                <path d="M0.006,-19.979C-5.825,-19.979 -10.548,-15.509 -10.548,-9.989C-10.548,-4.475 -5.825,0 0.006,0C5.831,0 10.554,-4.475 10.554,-9.989C10.554,-15.509 5.831,-19.979 0.006,-19.979" style="fill:white;"/>
            </g>
            <g transform="matrix(-1,0,0,1,443.8565,129.6715)">
                <path d="M0.004,-13.442C-3.919,-13.442 -7.096,-10.431 -7.096,-6.719C-7.096,-3.007 -3.919,0 0.004,0C3.921,0 7.1,-3.007 7.1,-6.719C7.1,-10.431 3.921,-13.442 0.004,-13.442" style="fill:rgb(49,186,219);"/>
            </g>
            <g transform="matrix(-1,0,0,1,394.4385,166.5015)">
                <path d="M-0.001,-19.979C-5.822,-19.979 -10.548,-15.509 -10.548,-9.989C-10.548,-4.475 -5.822,0 -0.001,0C5.825,0 10.547,-4.475 10.547,-9.989C10.547,-15.509 5.825,-19.979 -0.001,-19.979" style="fill:white;"/>
            </g>
            <g transform="matrix(-1,0,0,1,388.709,129.6715)">
                <path d="M0,-13.442C-3.923,-13.442 -7.096,-10.431 -7.096,-6.719C-7.096,-3.007 -3.923,0 0,0C3.917,0 7.096,-3.007 7.096,-6.719C7.096,-10.431 3.917,-13.442 0,-13.442" style="fill:rgb(49,186,219);"/>
            </g>
        </g>
    </g>
</svg>
