<?xml version="1.0" encoding="UTF-8" standalone="no"?>
<!DOCTYPE svg PUBLIC "-//W3C//DTD SVG 1.1//EN" "http://www.w3.org/Graphics/SVG/1.1/DTD/svg11.dtd">
<svg width="100%" height="100%" viewBox="0 0 3452 3452" version="1.1" xmlns="http://www.w3.org/2000/svg" xmlns:xlink="http://www.w3.org/1999/xlink" xml:space="preserve" xmlns:serif="http://www.serif.com/" style="fill-rule:evenodd;clip-rule:evenodd;stroke-linejoin:round;stroke-miterlimit:2;">
    <g id="Capa-1" serif:id="Capa 1" transform="matrix(4.166667,0,0,4.166667,0,0)">
        <g transform="matrix(0,-1,-1,0,414.1271,0)">
            <path d="M-414.127,-414.127C-185.411,-414.127 0,-228.716 0,-0C0,228.716 -185.411,414.127 -414.127,414.127C-642.843,414.127 -828.255,228.716 -828.255,-0C-828.255,-228.716 -642.843,-414.127 -414.127,-414.127" style="fill:rgb(0,23,73);fill-rule:nonzero;"/>
        </g>
        <g transform="matrix(1,0,0,1,585.8493,645.1234)">
            <path d="M0,-461.994L-343.444,-461.994C-363.165,-461.994 -379.151,-446.008 -379.151,-426.287L-379.151,-35.706C-379.151,-15.985 -363.165,0 -343.444,0L0,0C19.72,0 35.706,-15.985 35.706,-35.706L35.706,-426.287C35.706,-446.008 19.72,-461.994 0,-461.994" style="fill:white;fill-rule:nonzero;"/>
        </g>
        <g transform="matrix(-1,0,0,1,828.255,-129.735)">
            <rect x="283.174" y="473.209" width="261.907" height="11.571" style="fill:rgb(0,23,73);"/>
        </g>
        <g transform="matrix(-1,0,0,1,715.82,-213.692)">
            <rect x="283.174" y="515.187" width="149.472" height="11.572" style="fill:rgb(0,23,73);"/>
        </g>
        <g transform="matrix(-1,0,0,1,797.734,-45.775)">
            <rect x="283.174" y="431.229" width="231.386" height="11.571" style="fill:rgb(0,23,73);"/>
        </g>
        <g transform="matrix(1,0,0,1,536.9255,594.0478)">
            <path d="M0,-127.479L-245.597,-127.479C-250.101,-127.479 -253.752,-123.828 -253.752,-119.324L-253.752,-8.155C-253.752,-3.651 -250.101,0 -245.597,0L0,0C4.504,0 8.155,-3.651 8.155,-8.155L8.155,-119.324C8.155,-123.828 4.504,-127.479 0,-127.479" style="fill:rgb(5,195,222);fill-rule:nonzero;"/>
        </g>
        <g transform="matrix(-1,0,0,1,937.292,232.362)">
            <rect x="420.156" y="259.184" width="96.98" height="77.524" style="fill:rgb(0,23,73);"/>
        </g>
        <g transform="matrix(1,0,0,1,294.7766,259.0353)">
            <path d="M0,-0.901L5.895,-0.901C8.666,-0.901 10.864,-1.527 12.487,-2.778C14.111,-4.029 14.923,-5.534 14.923,-7.292C14.923,-8.781 14.266,-10.085 12.953,-11.201C11.639,-12.318 9.762,-12.877 7.322,-12.877L0,-12.877L0,-0.901ZM0,5.459L0,12.005L6.422,12.005C7.953,12.005 9.043,12.3 9.695,12.889C10.347,13.479 10.672,14.249 10.672,15.201C10.672,16.131 10.347,16.892 9.695,17.481C9.043,18.071 7.953,18.366 6.422,18.366L-7.353,18.366C-8.883,18.366 -9.974,18.071 -10.626,17.481C-11.277,16.892 -11.603,16.121 -11.603,15.169C-11.603,14.239 -11.272,13.479 -10.61,12.889C-9.949,12.3 -8.863,12.005 -7.353,12.005L-6.36,12.005L-6.36,-12.877L-7.353,-12.877C-8.883,-12.877 -9.974,-13.172 -10.626,-13.76C-11.277,-14.35 -11.603,-15.121 -11.603,-16.072C-11.603,-17.023 -11.277,-17.794 -10.626,-18.383C-9.974,-18.972 -8.883,-19.267 -7.353,-19.267L7.291,-19.236C11.593,-19.236 15,-18.062 17.513,-15.715C20.026,-13.368 21.283,-10.508 21.283,-7.136C21.283,-5.275 20.859,-3.517 20.011,-1.863C19.37,-0.622 18.299,0.604 16.8,1.814C15.3,3.024 13.77,3.934 12.208,4.544C10.646,5.154 8.583,5.459 6.019,5.459L0,5.459Z" style="fill:rgb(0,23,73);fill-rule:nonzero;"/>
        </g>
        <g transform="matrix(1,0,0,1,330.0202,260.4933)">
            <path d="M0,-3.817L4.964,-3.817C6.805,-3.817 8.449,-4.096 9.896,-4.655C11.841,-5.399 13.149,-6.185 13.821,-7.012C14.494,-7.839 14.83,-8.657 14.83,-9.463C14.83,-10.663 14.188,-11.775 12.906,-12.798C11.624,-13.823 9.752,-14.335 7.291,-14.335L0,-14.335L0,-3.817ZM0,2.543L0,10.547L2.296,10.547C3.826,10.547 4.917,10.842 5.569,11.431C6.22,12.021 6.546,12.791 6.546,13.743C6.546,14.673 6.22,15.434 5.569,16.023C4.917,16.613 3.826,16.908 2.296,16.908L-7.353,16.908C-8.883,16.908 -9.975,16.613 -10.626,16.023C-11.277,15.434 -11.603,14.663 -11.603,13.711C-11.603,12.781 -11.272,12.021 -10.61,11.431C-9.949,10.842 -8.863,10.547 -7.353,10.547L-6.36,10.547L-6.36,-14.335L-7.353,-14.335C-8.883,-14.335 -9.975,-14.63 -10.626,-15.218C-11.277,-15.808 -11.603,-16.579 -11.603,-17.53C-11.603,-18.481 -11.277,-19.252 -10.626,-19.841C-9.975,-20.43 -8.883,-20.725 -7.353,-20.725L7.042,-20.694C11.531,-20.694 15.011,-19.583 17.482,-17.359C19.954,-15.135 21.189,-12.431 21.189,-9.247C21.189,-7.26 20.61,-5.457 19.452,-3.833C18.294,-2.209 16.546,-0.766 14.209,0.495C15.553,1.674 16.991,3.184 18.521,5.025C19.473,6.204 20.755,8.044 22.369,10.547C23.982,10.547 25.047,10.712 25.564,11.043C26.495,11.685 26.96,12.584 26.96,13.743C26.96,14.673 26.64,15.434 25.999,16.023C25.357,16.613 24.271,16.908 22.741,16.908L19.111,16.908C13.961,8.945 9.69,4.157 6.298,2.543L0,2.543Z" style="fill:rgb(0,23,73);fill-rule:nonzero;"/>
        </g>
        <g transform="matrix(1,0,0,1,386.2053,258.5681)">
            <path d="M0,0.032C0,-3.836 -1.168,-7.036 -3.506,-9.571C-5.843,-12.104 -8.501,-13.371 -11.479,-13.371C-14.437,-13.371 -17.084,-12.099 -19.421,-9.555C-21.758,-7.011 -22.927,-3.816 -22.927,0.032C-22.927,3.879 -21.758,7.069 -19.421,9.602C-17.084,12.136 -14.437,13.403 -11.479,13.403C-8.501,13.403 -5.843,12.141 -3.506,9.618C-1.168,7.094 0,3.899 0,0.032M6.36,0.032C6.36,5.678 4.565,10.379 0.977,14.133C-2.611,17.886 -6.763,19.763 -11.479,19.763C-15.719,19.763 -19.545,18.202 -22.958,15.079C-27.177,11.211 -29.287,6.195 -29.287,0.032C-29.287,-6.132 -27.177,-11.157 -22.958,-15.046C-19.545,-18.169 -15.719,-19.731 -11.479,-19.731C-6.763,-19.731 -2.611,-17.854 0.977,-14.1C4.565,-10.346 6.36,-5.636 6.36,0.032" style="fill:rgb(0,23,73);fill-rule:nonzero;"/>
        </g>
        <g transform="matrix(1,0,0,1,408.4807,255.4359)">
            <path d="M0,6.297L0,15.605L6.515,15.605C8.045,15.605 9.137,15.9 9.788,16.488C10.439,17.078 10.766,17.849 10.766,18.8C10.766,19.731 10.439,20.491 9.788,21.08C9.137,21.67 8.045,21.965 6.515,21.965L-7.353,21.965C-8.883,21.965 -9.974,21.67 -10.626,21.08C-11.277,20.491 -11.603,19.721 -11.603,18.769C-11.603,17.838 -11.272,17.078 -10.61,16.488C-9.948,15.9 -8.863,15.605 -7.353,15.605L-6.36,15.605L-6.36,-9.277L-7.353,-9.277C-8.883,-9.277 -9.974,-9.572 -10.626,-10.161C-11.277,-10.751 -11.603,-11.521 -11.603,-12.473C-11.603,-13.424 -11.277,-14.194 -10.626,-14.784C-9.974,-15.373 -8.883,-15.668 -7.353,-15.668L22.585,-15.637L22.585,-5.927C22.585,-4.417 22.291,-3.336 21.702,-2.684C21.112,-2.033 20.342,-1.707 19.39,-1.707C18.459,-1.707 17.699,-2.027 17.11,-2.669C16.521,-3.31 16.226,-4.395 16.226,-5.927L16.226,-9.277L0,-9.277L0,-0.062L5.584,-0.062C5.584,-1.718 5.739,-2.782 6.05,-3.259C6.691,-4.271 7.601,-4.778 8.78,-4.778C9.71,-4.778 10.471,-4.453 11.06,-3.802C11.649,-3.149 11.944,-2.058 11.944,-0.528L11.944,6.794C11.944,8.324 11.649,9.415 11.06,10.067C10.471,10.718 9.7,11.044 8.749,11.044C7.591,11.044 6.691,10.537 6.05,9.524C5.739,9.048 5.584,7.973 5.584,6.297L0,6.297Z" style="fill:rgb(0,23,73);fill-rule:nonzero;"/>
        </g>
        <g transform="matrix(1,0,0,1,444.4377,255.4667)">
            <path d="M0,6.235L0,15.574L16.226,15.574L16.226,12.131C16.226,10.599 16.521,9.508 17.11,8.857C17.7,8.206 18.47,7.88 19.421,7.88C20.352,7.88 21.112,8.206 21.702,8.857C22.291,9.508 22.586,10.599 22.586,12.131L22.586,21.934L-7.353,21.934C-8.883,21.934 -9.974,21.639 -10.625,21.049C-11.277,20.461 -11.603,19.69 -11.603,18.738C-11.603,17.807 -11.272,17.048 -10.61,16.458C-9.948,15.869 -8.862,15.574 -7.353,15.574L-6.36,15.574L-6.36,-9.308L-7.353,-9.308C-8.883,-9.308 -9.974,-9.603 -10.625,-10.192C-11.277,-10.782 -11.603,-11.552 -11.603,-12.503C-11.603,-13.454 -11.277,-14.225 -10.625,-14.815C-9.974,-15.404 -8.883,-15.699 -7.353,-15.699L21.19,-15.667L21.19,-5.988C21.19,-4.478 20.9,-3.398 20.321,-2.746C19.742,-2.094 18.977,-1.769 18.025,-1.769C17.074,-1.769 16.303,-2.089 15.714,-2.731C15.125,-3.371 14.83,-4.457 14.83,-5.988L14.83,-9.308L0,-9.308L0,-0.124L5.584,-0.124C5.584,-1.779 5.74,-2.844 6.05,-3.32C6.691,-4.333 7.601,-4.84 8.78,-4.84C9.711,-4.84 10.471,-4.514 11.061,-3.863C11.65,-3.211 11.944,-2.12 11.944,-0.59L11.944,6.732C11.944,8.118 11.779,9.048 11.448,9.524C10.786,10.496 9.897,10.982 8.78,10.982C7.601,10.982 6.691,10.475 6.05,9.462C5.74,8.986 5.584,7.911 5.584,6.235L0,6.235Z" style="fill:rgb(0,23,73);fill-rule:nonzero;"/>
        </g>
        <g transform="matrix(1,0,0,1,499.0715,275.7566)">
            <path d="M0,-34.344C0.393,-34.882 0.822,-35.285 1.288,-35.554C1.753,-35.823 2.254,-35.957 2.792,-35.957C3.723,-35.957 4.483,-35.637 5.073,-34.996C5.662,-34.355 5.957,-33.269 5.957,-31.739L5.957,-26.34C5.957,-24.81 5.662,-23.719 5.073,-23.067C4.483,-22.415 3.723,-22.09 2.792,-22.09C1.944,-22.09 1.262,-22.327 0.745,-22.803C0.228,-23.279 -0.155,-24.168 -0.403,-25.471C-0.548,-26.34 -0.837,-27.012 -1.272,-27.488C-2.12,-28.419 -3.304,-29.163 -4.824,-29.722C-6.344,-30.281 -7.87,-30.56 -9.4,-30.56C-11.303,-30.56 -13.051,-30.146 -14.644,-29.319C-16.236,-28.491 -17.642,-27.147 -18.863,-25.285C-20.083,-23.424 -20.693,-21.211 -20.693,-18.646L-20.693,-14.52C-20.693,-11.459 -19.582,-8.905 -17.358,-6.857C-15.135,-4.809 -12.048,-3.785 -8.097,-3.785C-5.739,-3.785 -3.744,-4.106 -2.109,-4.747C-1.158,-5.119 -0.145,-5.854 0.931,-6.949C1.593,-7.612 2.11,-8.041 2.482,-8.238C2.854,-8.434 3.278,-8.532 3.754,-8.532C4.602,-8.532 5.347,-8.211 5.988,-7.571C6.629,-6.929 6.95,-6.174 6.95,-5.306C6.95,-4.437 6.515,-3.506 5.646,-2.513C4.385,-1.066 2.761,0.072 0.776,0.899C-1.892,2.016 -4.84,2.575 -8.066,2.575C-11.831,2.575 -15.223,1.799 -18.242,0.248C-20.683,-0.993 -22.761,-2.953 -24.478,-5.631C-26.195,-8.31 -27.053,-11.232 -27.053,-14.396L-27.053,-18.708C-27.053,-22.018 -26.283,-25.105 -24.742,-27.969C-23.201,-30.833 -21.065,-33.041 -18.335,-34.593C-15.605,-36.144 -12.709,-36.919 -9.648,-36.919C-7.808,-36.919 -6.086,-36.707 -4.483,-36.283C-2.88,-35.86 -1.386,-35.213 0,-34.344" style="fill:rgb(0,23,73);fill-rule:nonzero;"/>
        </g>
        <g transform="matrix(1,0,0,1,538.7209,258.5681)">
            <path d="M0,0.032C0,-3.836 -1.169,-7.036 -3.506,-9.571C-5.843,-12.104 -8.501,-13.371 -11.479,-13.371C-14.437,-13.371 -17.084,-12.099 -19.421,-9.555C-21.759,-7.011 -22.927,-3.816 -22.927,0.032C-22.927,3.879 -21.759,7.069 -19.421,9.602C-17.084,12.136 -14.437,13.403 -11.479,13.403C-8.501,13.403 -5.843,12.141 -3.506,9.618C-1.169,7.094 0,3.899 0,0.032M6.36,0.032C6.36,5.678 4.565,10.379 0.977,14.133C-2.611,17.886 -6.764,19.763 -11.479,19.763C-15.719,19.763 -19.545,18.202 -22.958,15.079C-27.177,11.211 -29.287,6.195 -29.287,0.032C-29.287,-6.132 -27.177,-11.157 -22.958,-15.046C-19.545,-18.169 -15.719,-19.731 -11.479,-19.731C-6.764,-19.731 -2.611,-17.854 0.977,-14.1C4.565,-10.346 6.36,-5.636 6.36,0.032" style="fill:rgb(0,23,73);fill-rule:nonzero;"/>
        </g>
    </g>
</svg>
