<?xml version="1.0" encoding="UTF-8" standalone="no"?>
<!DOCTYPE svg PUBLIC "-//W3C//DTD SVG 1.1//EN" "http://www.w3.org/Graphics/SVG/1.1/DTD/svg11.dtd">
<svg width="100%" height="100%" viewBox="0 0 3452 3452" version="1.1" xmlns="http://www.w3.org/2000/svg" xmlns:xlink="http://www.w3.org/1999/xlink" xml:space="preserve" xmlns:serif="http://www.serif.com/" style="fill-rule:evenodd;clip-rule:evenodd;stroke-linejoin:round;stroke-miterlimit:2;">
    <g id="Capa-1" serif:id="Capa 1" transform="matrix(4.166667,0,0,4.166667,0,0)">
        <g transform="matrix(0,-1,-1,0,414.1264,0)">
            <path d="M-414.127,-414.127C-185.411,-414.127 0,-228.716 0,-0C0,228.715 -185.411,414.127 -414.127,414.127C-642.843,414.127 -828.255,228.715 -828.255,-0C-828.255,-228.716 -642.843,-414.127 -414.127,-414.127" style="fill:rgb(0,23,73);fill-rule:nonzero;"/>
        </g>
        <g transform="matrix(1,0,0,1,230.5566,207.035)">
            <path d="M0,360.609L0,130.492L367.123,130.492L367.123,212.742L400.464,212.742L400.464,66.93C400.464,47.128 384.03,29.819 363.904,29.819L350.139,29.819L350.139,47.128C350.139,65.275 335.723,80.547 316.681,80.547C298.631,80.547 283.663,65.275 283.663,47.128L283.663,29.819L83.707,29.819L83.707,47.128C83.707,65.275 68.492,80.547 49.793,80.547C31.324,80.547 16.377,65.275 16.377,47.128L16.377,29.819L2.667,29.819C-17.518,29.819 -33.323,47.128 -33.323,66.93L-33.323,360.609C-33.323,381.079 -17.518,397.245 2.667,397.245L234.33,397.245L234.33,363.884L2.667,363.884C1.505,363.884 0,362.722 0,360.609M316.681,63.179C326.24,63.179 333.989,56.343 333.989,47.128L333.989,-19.555C333.989,-29.192 326.24,-36.636 316.681,-36.636C308.113,-36.636 300.572,-29.192 300.572,-19.555L300.572,47.128C300.572,56.343 308.113,63.179 316.681,63.179M33.343,47.128L33.343,-19.555C33.343,-29.192 40.883,-36.636 49.793,-36.636C59.334,-36.636 66.798,-29.192 66.798,-19.555L66.798,47.128C66.798,56.343 59.334,63.179 49.793,63.179C40.883,63.179 33.343,56.343 33.343,47.128M81.727,159.606C100.673,159.606 116.248,174.839 116.248,194.434C116.248,213.666 100.673,228.652 81.727,228.652C62.247,228.652 46.596,213.666 46.596,194.434C46.596,174.839 62.247,159.606 81.727,159.606M181.828,159.606C200.471,159.606 216.446,174.839 216.446,194.434C216.446,213.666 200.471,228.652 181.828,228.652C162.273,228.652 146.392,213.666 146.392,194.434C146.392,174.839 162.273,159.606 181.828,159.606M281.092,159.606C300.572,159.606 316.168,174.839 316.168,194.434C316.168,213.666 300.572,228.652 281.092,228.652C262.146,228.652 246.493,213.666 246.493,194.434C246.493,174.839 262.146,159.606 281.092,159.606M81.727,249.711C100.673,249.711 116.248,264.64 116.248,284.139C116.248,302.837 100.673,318.642 81.727,318.642C62.247,318.642 46.596,303.067 46.596,284.139C46.596,264.64 62.247,249.711 81.727,249.711M181.828,249.711C200.471,249.711 216.446,264.64 216.446,284.139C216.446,302.837 200.471,318.642 181.828,318.642C162.273,318.642 146.392,303.067 146.392,284.139C146.392,264.64 162.273,249.711 181.828,249.711" style="fill:white;"/>
        </g>
        <g transform="matrix(1,0,0,1,587.4609,468.3889)">
            <path d="M0,153.138C-42.219,153.138 -76.566,118.787 -76.566,76.574C-76.566,34.35 -42.219,0.005 0,0.005C42.218,0.005 76.566,34.35 76.566,76.574C76.566,118.787 42.218,153.138 0,153.138M92.135,113.716L103.241,113.286C105.828,113.177 108.503,111.057 109.183,108.555L112.834,90.967C113.207,88.405 111.609,85.389 109.284,84.256L99.277,79.412C96.949,78.284 95.016,75.242 94.979,72.654C94.979,72.654 94.963,71.357 94.7,68.325L94.614,67.278C94.469,66.141 96.141,64.074 98.329,62.693L107.753,56.745C109.941,55.36 111.193,52.181 110.535,49.676L104.966,32.618C104.011,30.215 101.118,28.398 98.537,28.584L87.396,29.391C84.813,29.576 81.75,28.167 80.584,26.252C79.42,24.331 77.017,17.657 78.224,15.366L83.401,5.527C84.605,3.234 84.099,-0.14 82.275,-1.973L68.896,-13.942C66.868,-15.551 63.456,-15.682 61.311,-14.231L52.09,-7.98C49.948,-6.53 46.591,-6.218 44.635,-7.292C42.679,-8.364 37.242,-12.973 37.141,-15.557L36.702,-26.666C36.602,-29.254 34.477,-31.925 31.981,-32.607L14.397,-36.268C11.838,-36.648 8.819,-35.049 7.69,-32.723L2.843,-22.709C1.712,-20.381 -1.326,-18.442 -3.913,-18.407C-3.913,-18.407 -5.209,-18.386 -8.24,-18.131L-9.295,-18.028C-10.431,-17.889 -12.492,-19.562 -13.87,-21.754L-19.82,-31.19C-21.201,-33.376 -24.379,-34.625 -26.883,-33.966L-43.951,-28.393C-46.358,-27.439 -48.174,-24.549 -47.986,-21.967L-47.179,-10.826C-46.995,-8.245 -48.405,-5.178 -50.323,-4.012C-52.237,-2.847 -58.906,-0.438 -61.198,-1.646L-71.05,-6.828C-73.341,-8.03 -76.719,-7.529 -78.553,-5.706L-90.52,7.683C-92.126,9.712 -92.249,13.125 -90.797,15.265L-84.54,24.489C-83.091,26.628 -82.782,29.981 -83.856,31.94C-84.936,33.898 -89.544,39.325 -92.129,39.433L-103.245,39.865C-105.827,39.969 -108.502,42.093 -109.185,44.589L-112.836,62.18C-113.21,64.739 -111.61,67.757 -109.283,68.887L-99.267,73.732C-96.939,74.861 -95.007,77.9 -94.977,80.489C-94.977,80.489 -94.955,81.79 -94.691,84.817L-94.594,85.871C-94.456,87.01 -96.128,89.072 -98.318,90.452L-107.749,96.4C-109.939,97.781 -111.189,100.959 -110.531,103.46L-104.961,120.519C-104.005,122.923 -101.113,124.74 -98.532,124.552L-87.402,123.744C-84.82,123.554 -81.753,124.969 -80.59,126.884C-79.425,128.794 -77.021,135.476 -78.224,137.768L-83.401,147.609C-84.605,149.901 -84.102,153.279 -82.277,155.113L-68.89,167.09C-66.856,168.695 -63.446,168.82 -61.304,167.37L-52.083,161.117C-49.938,159.661 -46.588,159.356 -44.632,160.437C-42.678,161.514 -37.247,166.118 -37.143,168.701L-36.704,179.816C-36.604,182.398 -34.479,185.076 -31.98,185.761L-14.401,189.411C-11.841,189.786 -8.823,188.19 -7.691,185.866L-2.832,175.848C-1.704,173.523 1.339,171.583 3.927,171.544C3.927,171.544 5.219,171.529 8.254,171.275L9.298,171.185C10.437,171.034 12.494,172.704 13.875,174.897L19.826,184.334C21.203,186.527 24.381,187.782 26.886,187.121L43.952,181.544C46.356,180.593 48.17,177.7 47.986,175.118L47.183,163.977C46.998,161.395 48.411,158.33 50.325,157.163C52.237,155.996 58.916,153.596 61.204,154.797L71.053,159.973C73.342,161.178 76.719,160.672 78.556,158.849L90.525,145.461C92.134,143.432 92.26,140.022 90.809,137.876L84.556,128.66C83.104,126.517 82.792,123.164 83.867,121.208C84.939,119.251 89.552,113.814 92.135,113.716" style="fill:rgb(5,195,222);fill-rule:nonzero;"/>
        </g>
        <g transform="matrix(1,0,0,1,587.5371,493.2724)">
            <path d="M0,104.566C-28.687,104.566 -52.349,81.291 -52.349,52.146C-52.349,23.428 -28.687,0.002 0,0.002C28.778,0.002 52.195,23.428 52.195,52.146C52.195,81.291 28.778,104.566 0,104.566M0.025,-16.497C-37.717,-16.497 -68.845,14.322 -68.845,52.107C-68.845,90.449 -37.717,121.063 0.025,121.063C37.886,121.063 68.692,90.449 68.692,52.107C68.692,14.322 37.886,-16.497 0.025,-16.497" style="fill:white;"/>
        </g>
        <g transform="matrix(1,0,0,1,587.5645,554.2268)">
            <path d="M0,-51.697L-8.741,-51.697L-8.741,0L43.045,0L43.045,-8.847C43.045,-32.404 23.663,-51.697 0,-51.697" style="fill:rgb(5,195,222);"/>
        </g>
    </g>
</svg>
