<?xml version="1.0" encoding="UTF-8" standalone="no"?>
<!DOCTYPE svg PUBLIC "-//W3C//DTD SVG 1.1//EN" "http://www.w3.org/Graphics/SVG/1.1/DTD/svg11.dtd">
<svg width="100%" height="100%" viewBox="0 0 3452 3452" version="1.1" xmlns="http://www.w3.org/2000/svg" xmlns:xlink="http://www.w3.org/1999/xlink" xml:space="preserve" xmlns:serif="http://www.serif.com/" style="fill-rule:evenodd;clip-rule:evenodd;stroke-linejoin:round;stroke-miterlimit:2;">
    <g id="Capa-1" serif:id="Capa 1" transform="matrix(4.166667,0,0,4.166667,0,0)">
        <g transform="matrix(1,0,0,1,288.7556,501.9224)">
            <path d="M0,-70.712L0,0C0,5.234 -4.279,9.514 -9.513,9.514L-27.113,9.514C-32.336,9.514 -36.616,5.234 -36.616,0L-36.616,-70.712C-36.616,-75.946 -32.336,-80.226 -27.113,-80.226L-9.513,-80.226C-7.477,-80.226 -5.602,-79.581 -4.049,-78.488C-1.599,-76.763 0,-73.922 0,-70.712" style="fill:rgb(0,23,73);fill-rule:nonzero;"/>
        </g>
        <g transform="matrix(1,0,0,1,544.133,426.6212)">
            <path d="M0,79.891C-0.748,78.534 -1.185,76.957 -1.185,75.301L-1.185,4.589C-1.185,-0.645 3.094,-4.924 8.328,-4.924L25.928,-4.924C31.163,-4.924 35.442,-0.645 35.442,4.589L35.442,75.301C35.442,80.536 31.163,84.815 25.928,84.815L8.328,84.815C4.762,84.815 1.633,82.825 0,79.891" style="fill:rgb(0,23,73);fill-rule:nonzero;"/>
        </g>
        <g transform="matrix(1,0,0,1,288.7556,501.9224)">
            <path d="M0,-70.712L0,0C0,5.234 -4.279,9.514 -9.513,9.514L-27.113,9.514C-32.336,9.514 -36.616,5.234 -36.616,0L-36.616,-70.712C-36.616,-75.946 -32.336,-80.226 -27.113,-80.226L-9.513,-80.226C-7.477,-80.226 -5.602,-79.581 -4.049,-78.488C-1.599,-76.763 0,-73.922 0,-70.712" style="fill:white;fill-rule:nonzero;"/>
        </g>
        <g transform="matrix(1,0,0,1,579.5749,501.9224)">
            <path d="M0,-70.712L0,0C0,5.234 -4.279,9.514 -9.514,9.514L-27.114,9.514C-30.68,9.514 -33.809,7.523 -35.442,4.59C-36.19,3.232 -36.627,1.656 -36.627,0L-36.627,-70.712C-36.627,-75.946 -32.348,-80.226 -27.114,-80.226L-9.514,-80.226C-4.279,-80.226 0,-75.946 0,-70.712" style="fill:white;fill-rule:nonzero;"/>
        </g>
        <g transform="matrix(1,0,0,1,288.7556,501.9224)">
            <path d="M0,-70.712L0,0C0,5.234 -4.279,9.514 -9.513,9.514L-27.113,9.514C-32.336,9.514 -36.616,5.234 -36.616,0L-36.616,-70.712C-36.616,-75.946 -32.336,-80.226 -27.113,-80.226L-9.513,-80.226C-7.477,-80.226 -5.602,-79.581 -4.049,-78.488C-1.599,-76.763 0,-73.922 0,-70.712" style="fill:rgb(0,23,73);fill-rule:nonzero;"/>
        </g>
        <g transform="matrix(1,0,0,1,579.5749,501.9224)">
            <path d="M0,-70.712L0,0C0,5.234 -4.279,9.514 -9.514,9.514L-27.114,9.514C-30.68,9.514 -33.809,7.523 -35.442,4.59C-36.19,3.232 -36.627,1.656 -36.627,0L-36.627,-70.712C-36.627,-75.946 -32.348,-80.226 -27.114,-80.226L-9.514,-80.226C-4.279,-80.226 0,-75.946 0,-70.712" style="fill:rgb(0,23,73);fill-rule:nonzero;"/>
        </g>
        <g transform="matrix(0,-1,-1,0,414.1297,0.0003)">
            <path d="M-414.13,-414.12C-642.84,-414.12 -828.25,-228.7 -828.25,0.01C-828.25,228.73 -642.84,414.13 -414.13,414.13C-185.42,414.13 0,228.73 0,0.01C0,-228.7 -185.42,-414.12 -414.13,-414.12" style="fill:rgb(0,23,73);fill-rule:nonzero;"/>
        </g>
        <g transform="matrix(1,0,0,1,542.2712,533.2286)">
            <path d="M0,-4.86L-1.36,0L-1.37,0L0,-4.86Z" style="fill:rgb(5,195,222);fill-rule:nonzero;"/>
        </g>
        <g transform="matrix(1,0,0,1,552.571,543.0277)">
            <path d="M0,-3.869L-0.99,0L-1.01,0.08L-1.1,0L-1.069,-0.079L-0.2,-3.949C-0.14,-3.92 -0.069,-3.899 0,-3.869" style="fill:rgb(5,195,222);fill-rule:nonzero;"/>
        </g>
        <g transform="matrix(1,0,0,1,554.321,454.919)">
            <path d="M0,54.849L-0.01,54.849C-0.08,54.859 -0.149,54.879 -0.22,54.89L-15.04,0.07L-14.96,-0.041L0,54.849Z" style="fill:rgb(5,195,222);fill-rule:nonzero;"/>
        </g>
        <g transform="matrix(1,0,0,1,553.5612,542.9483)">
            <path d="M0,1.89L-1.99,0.16L-2,0.16L-2.09,0.079L-2.06,0L-1.98,0.079L0,1.89Z" style="fill:rgb(5,195,222);fill-rule:nonzero;"/>
        </g>
        <g transform="matrix(1,0,0,1,608.7712,454.8786)">
            <path d="M0,132.99L-17.54,132.99C-24.95,123.17 -30.479,115.559 -34.62,109.66C-46.52,92.71 -46.83,89.96 -46.83,89.96L-44.86,88.149L-44.85,88.149L-45.82,84.37C-47.38,84.899 -49.05,85.19 -50.79,85.19C-51.02,85.19 -51.25,85.19 -51.47,85.17L-51.58,85.17C-51.63,85.17 -51.68,85.17 -51.74,85.16C-51.8,85.16 -51.86,85.149 -51.92,85.149C-52.07,85.139 -52.21,85.12 -52.36,85.11C-52.39,85.11 -52.42,85.1 -52.46,85.1C-52.55,85.09 -52.65,85.08 -52.75,85.059C-52.96,85.04 -53.17,85.01 -53.39,84.97C-53.56,84.94 -53.74,84.899 -53.93,84.87C-54.71,84.71 -55.46,84.49 -56.18,84.22L-56.2,84.28C-56.27,84.25 -56.34,84.229 -56.4,84.2L-57.27,88.07L-57.3,88.149L-57.21,88.229L-57.2,88.229L-55.21,89.96C-55.21,89.96 -55.53,92.71 -67.42,109.66C-71.55,115.559 -77.09,123.17 -84.5,132.99L-102.05,132.99C-94.51,123.889 -88.69,116.18 -84.2,109.66C-66.84,84.53 -69.17,77.139 -69.17,77.139L-67.87,78.35L-67.86,78.35L-66.5,73.49L-66.02,71.75L-66.02,71.74C-66.04,71.59 -66.06,71.43 -66.07,71.27C-66.09,71.059 -66.11,70.84 -66.12,70.62C-66.13,70.36 -66.14,70.09 -66.14,69.83C-66.14,68.12 -65.86,66.479 -65.35,64.95C-70.73,49.1 -70.22,1.05 -70.22,1.05L-69.49,0.11L-54.67,54.93C-54.6,54.92 -54.53,54.899 -54.46,54.889L-54.45,54.889L-54.45,54.92C-53.49,54.68 -52.49,54.54 -51.47,54.5C-51.25,54.479 -51.02,54.479 -50.79,54.479C-49.68,54.479 -48.6,54.6 -47.56,54.82L-32.63,0L-31.82,1.05C-31.82,1.05 -31.33,47.77 -36.47,64.27C-35.8,65.99 -35.43,67.87 -35.43,69.83C-35.43,70.85 -35.53,71.86 -35.72,72.82L-34.18,78.34L-34.17,78.34L-32.87,77.139C-32.87,77.139 -35.2,84.53 -17.85,109.66C-13.35,116.18 -7.53,123.889 0,132.99" style="fill:rgb(5,195,222);fill-rule:nonzero;"/>
        </g>
        <g transform="matrix(1,0,0,1,542.7014,525.4989)">
            <path d="M0,0.65C-0.01,0.599 -0.02,0.54 -0.02,0.49C-0.04,0.33 -0.05,0.16 -0.05,0C-0.04,0.219 -0.02,0.439 0,0.65" style="fill:rgb(5,195,222);fill-rule:nonzero;"/>
        </g>
        <g transform="matrix(1,0,0,1,554.8415,539.0985)">
            <path d="M0,0.65C-0.761,0.5 -1.57,0.3 -2.271,0.06L-2.25,0C-1.53,0.27 -0.78,0.49 0,0.65" style="fill:rgb(5,195,222);fill-rule:nonzero;"/>
        </g>
        <g transform="matrix(1,0,0,1,556.8513,539.9888)">
            <path d="M0,0.039C-0.08,0.039 -0.19,0.029 -0.29,0.019C-0.34,0.01 -0.39,0.01 -0.44,0C-0.29,0.01 -0.15,0.029 0,0.039" style="fill:rgb(5,195,222);fill-rule:nonzero;"/>
        </g>
        <g transform="matrix(1,0,0,1,543.4211,460.5486)">
            <path d="M0,59.28C-0.51,60.809 -0.79,62.45 -0.79,64.16C-0.79,64.42 -0.78,64.69 -0.77,64.95C-0.8,64.69 -0.81,64.43 -0.81,64.16C-0.81,62.46 -0.53,60.82 -0.02,59.3C-5.4,43.469 -4.93,-4.62 -4.93,-4.62L-4.17,-5.67L-4.14,-5.56L-4.87,-4.62C-4.87,-4.62 -5.38,43.43 0,59.28" style="fill:rgb(5,195,222);fill-rule:nonzero;"/>
        </g>
        <g transform="matrix(0,1,1,0,556.0315,511.0679)">
            <path d="M-1.71,1.27L-1.689,1.27C-1.649,0.249 -1.509,-0.751 -1.27,-1.71L-1.3,-1.71C-1.55,-0.68 -1.689,0.299 -1.71,1.27" style="fill:rgb(5,195,222);fill-rule:nonzero;"/>
        </g>
        <g transform="matrix(1,0,0,1,557.3015,540.0593)">
            <path d="M0,-0.011L0,0C-0.03,0 -0.07,0 -0.11,-0.011L0,-0.011Z" style="fill:rgb(5,195,222);fill-rule:nonzero;"/>
        </g>
        <g transform="matrix(1,0,0,1,324.8513,531.9077)">
            <path d="M0,-26.919C-0.25,-6.739 -11.86,11.37 -29.85,20.11L-30.08,48.19L-30.1,50.11L-39.8,50.11L-39.78,48.19L-65.73,48.19L-65.77,50.11L-75.48,50.11L-75.44,48.19L-74.81,20.73C-93.99,12.511 -106.05,-6.249 -105.83,-28.029C-105.67,-47.319 -96.26,-63.659 -80.02,-72.869L-72.7,-77.029L-73.1,-37.029L-51.84,-26.499L-32.59,-36.64L-32.07,-69.449L-30.29,-75.699L-24.78,-72.31C-9.3,-62.499 0.19,-45.119 0,-26.919" style="fill:rgb(5,195,222);fill-rule:nonzero;"/>
        </g>
        <g transform="matrix(-0.010416,0.999946,0.999946,0.010416,272.900591,594.062394)">
            <path d="M-14.09,12.024L-12.17,12.024L-11.9,-13.944L-13.82,-13.924L-14.09,12.024Z" style="fill:rgb(5,195,222);fill-rule:nonzero;"/>
        </g>
        <g transform="matrix(-0.010416,0.999946,0.999946,0.010416,272.900591,594.062394)">
            <path d="M-14.09,12.024L-12.17,12.024L-11.9,-13.944L-13.82,-13.924L-14.09,12.024Z" style="fill:rgb(5,195,222);fill-rule:nonzero;"/>
        </g>
        <g transform="matrix(1,0,0,1,448.8415,413.1883)">
            <path d="M0,141.4C-0.08,141.57 -7.21,156.98 -5.04,172.82C-4.95,173.461 -4.85,174.1 -4.73,174.75L-14.68,174.75C-14.771,174.1 -14.86,173.461 -14.93,172.82L-54.49,172.82C-54.57,173.461 -54.65,174.1 -54.74,174.75L-64.68,174.75C-64.561,174.1 -64.46,173.47 -64.37,172.82C-62.15,156.91 -69.311,141.57 -69.4,141.4L-72.771,134.44L-58.16,134.38L-58.16,129.53L-47.63,129.53L-47.63,-21L-34.7,-33.35L-21.76,-21L-21.76,129.53L-11.24,129.53L-11.24,134.44L3.34,134.44L0,141.4Z" style="fill:rgb(5,195,222);fill-rule:nonzero;"/>
        </g>
        <g transform="matrix(-1,0,0,1,394.1013,586.0079)">
            <path d="M-40.06,1.93L0,1.93C-0.09,1.281 -0.17,0.641 -0.25,0L-39.81,0C-39.88,0.641 -39.97,1.281 -40.06,1.93" style="fill:rgb(5,195,222);fill-rule:nonzero;"/>
        </g>
        <g transform="matrix(-1,0,0,1,394.1013,586.0079)">
            <path d="M-40.06,1.93L0,1.93C-0.09,1.281 -0.17,0.641 -0.25,0L-39.81,0C-39.88,0.641 -39.97,1.281 -40.06,1.93" style="fill:rgb(5,195,222);fill-rule:nonzero;"/>
        </g>
        <g transform="matrix(1,0,0,1,589.112,417.4334)">
            <path d="M0,0.026L0.005,0L0,0.025L0,0.026Z" style="fill:white;fill-rule:nonzero;"/>
        </g>
        <g transform="matrix(1,0,0,1,663.321,216.4785)">
            <path d="M0,334.56C-0.359,347.89 -9.37,359 -21.569,362.6C-24.26,363.39 -27.109,363.81 -30.06,363.81L-464.21,363.81C-480.49,363.81 -493.82,350.831 -494.26,334.56L-499.14,153.91L4.88,153.91L0,334.56ZM-303.31,0.56C-303.31,-15.88 -289.94,-29.26 -273.5,-29.26L-220.77,-29.26C-204.33,-29.26 -190.96,-15.88 -190.96,0.56L-190.96,6.11L-303.31,6.11L-303.31,0.56ZM14.25,7.82L-165.54,7.82L-165.54,0.56C-165.54,-29.9 -190.31,-54.67 -220.77,-54.67L-273.5,-54.67C-303.95,-54.67 -328.72,-29.9 -328.72,0.56L-328.72,7.82L-512.65,7.82C-544.37,7.82 -570.08,33.53 -570.08,65.25L-570.08,153.91L-524.56,153.91L-518.21,389.23L23.95,389.23L30.3,153.91L71.69,153.91L71.69,65.25C71.69,33.53 45.971,7.82 14.25,7.82" style="fill:white;fill-rule:nonzero;"/>
        </g>
        <g transform="matrix(0,-1,-1,0,557.9863,518.7028)">
            <path d="M-6.011,-6.009C-2.692,-6.009 0,-3.319 0,0.001C0,3.32 -2.692,6.011 -6.011,6.011C-9.329,6.011 -12.021,3.32 -12.021,0.001C-12.021,-3.319 -9.329,-6.009 -6.011,-6.009" style="fill:rgb(0,23,73);fill-rule:nonzero;"/>
        </g>
    </g>
</svg>
