<?xml version="1.0" encoding="UTF-8" standalone="no"?>
<!DOCTYPE svg PUBLIC "-//W3C//DTD SVG 1.1//EN" "http://www.w3.org/Graphics/SVG/1.1/DTD/svg11.dtd">
<svg width="100%" height="100%" viewBox="0 0 3452 3452" version="1.1" xmlns="http://www.w3.org/2000/svg" xmlns:xlink="http://www.w3.org/1999/xlink" xml:space="preserve" xmlns:serif="http://www.serif.com/" style="fill-rule:evenodd;clip-rule:evenodd;stroke-linejoin:round;stroke-miterlimit:2;">
    <g transform="matrix(0,-4.166667,-4.166667,0,1725.52875,-0.001667)">
        <path d="M-414.127,-414.127C-642.841,-414.127 -828.254,-228.713 -828.254,0C-828.254,228.725 -642.841,414.127 -414.127,414.127C-185.414,414.127 0,228.725 0,0C0,-228.713 -185.414,-414.127 -414.127,-414.127" style="fill:rgb(0,23,73);fill-rule:nonzero;"/>
    </g>
    <g transform="matrix(1.163265,0,0,1.163265,-281.70977,-281.725442)">
        <g transform="matrix(1,0,0,1,1725.520833,1725.5275)">
            <g transform="matrix(1,0,0,1,-1020.833333,-1020.833333)">
                <g transform="matrix(4.166667,0,0,4.166667,0,0)">
                    <g>
                        <g>
                            <path d="M470,0L20,0C8.972,0 0,8.972 0,20L0,470C0,481.028 8.972,490 20,490L470,490C481.028,490 490,481.028 490,470L490,20C490,8.972 481.028,0 470,0ZM470,470L20,470L20,90L470,90L470,470ZM470,70L20,70L20,20L470,20L470,70Z" style="fill:white;fill-rule:nonzero;"/>
                            <rect x="40" y="35" width="35" height="20" style="fill:rgb(5,195,222);"/>
                            <rect x="90" y="35" width="35" height="20" style="fill:rgb(5,195,222);"/>
                            <rect x="415" y="35" width="35" height="20" style="fill:rgb(5,195,222);"/>
                            <path d="M120,300.001L137.192,300.001C138.195,302.734 139.281,305.383 140.446,307.941L128.329,320.129C124.554,323.904 122.475,328.919 122.475,334.251C122.475,339.583 124.555,344.598 128.329,348.372L156.628,376.671C160.403,380.446 165.418,382.525 170.75,382.525C176.082,382.525 181.097,380.446 184.851,376.692L197.06,364.554C199.617,365.718 202.267,366.804 205,367.807L205,385C205,396.028 213.972,405 225,405L265,405C276.028,405 285,396.028 285.001,385L285.001,367.807C287.734,366.804 290.383,365.718 292.941,364.553L305.129,376.67C308.904,380.445 313.919,382.524 319.251,382.524C324.583,382.524 329.598,380.444 333.372,376.67L361.671,348.371C365.446,344.596 367.525,339.581 367.525,334.249C367.525,328.917 365.446,323.902 361.692,320.148L349.554,307.939C350.718,305.382 351.804,302.732 352.807,299.999L370,299.999C381.028,299.999 390,291.027 390,279.999L390,239.999C390,228.971 381.028,219.999 370,219.999L352.807,219.999C351.804,217.266 350.718,214.617 349.553,212.059L361.67,199.871C365.445,196.096 367.524,191.081 367.524,185.749C367.524,180.417 365.444,175.402 361.67,171.628L333.371,143.329C329.596,139.554 324.581,137.475 319.249,137.475C313.917,137.475 308.902,139.554 305.148,143.308L292.939,155.446C290.382,154.282 287.732,153.196 284.999,152.193L284.999,135C284.999,123.972 276.027,115 264.999,115L224.999,115C213.971,115 204.999,123.972 204.999,135L204.999,152.193C202.266,153.196 199.617,154.282 197.059,155.447L184.871,143.33C181.096,139.555 176.081,137.476 170.749,137.476C165.417,137.476 160.402,139.556 156.628,143.33L128.329,171.629C124.554,175.404 122.475,180.419 122.475,185.751C122.475,191.083 124.554,196.098 128.308,199.852L140.446,212.061C139.282,214.618 138.196,217.268 137.193,220.001L120,220.001C108.972,220.001 100,228.973 100,240.001L100,280.001C100,291.029 108.972,300.001 120,300.001ZM120,239.999L144.402,239.999C148.818,239.999 152.711,237.102 153.98,232.872C155.953,226.297 158.439,220.252 161.37,214.906C163.502,211.019 162.819,206.193 159.693,203.048L142.473,185.771L170.75,157.492L188.05,174.691C191.194,177.817 196.02,178.498 199.908,176.368C205.254,173.437 211.299,170.951 217.874,168.978C222.105,167.71 225.001,163.816 225.001,159.4L225.001,135L265.001,135L265.001,159.402C265.001,163.818 267.898,167.711 272.128,168.98C278.703,170.953 284.748,173.439 290.094,176.37C293.981,178.502 298.806,177.82 301.952,174.693L319.229,157.473L347.508,185.75L330.309,203.05C327.183,206.194 326.5,211.02 328.632,214.908C331.563,220.254 334.049,226.299 336.022,232.874C337.29,237.105 341.184,240.001 345.6,240.001L370,240.001L370,280.001L345.6,280.001C341.184,280.001 337.291,282.898 336.022,287.128C334.049,293.703 331.563,299.748 328.632,305.094C326.5,308.981 327.183,313.807 330.309,316.952L347.529,334.229L319.252,362.508L301.952,345.309C298.806,342.183 293.981,341.5 290.094,343.632C284.748,346.563 278.703,349.049 272.128,351.022C267.897,352.29 265.001,356.184 265.001,360.6L265.001,385L225.001,385L225.001,360.599C225.001,356.183 222.104,352.29 217.874,351.021C211.299,349.048 205.254,346.562 199.908,343.631C198.397,342.803 196.744,342.4 195.103,342.4C192.522,342.4 189.972,343.397 188.048,345.307L170.771,362.527L142.492,334.25L159.691,316.95C162.817,313.806 163.5,308.98 161.368,305.092C158.437,299.746 155.951,293.701 153.978,287.126C152.71,282.895 148.816,279.999 144.4,279.999L120,279.999L120,239.999Z" style="fill:white;fill-rule:nonzero;"/>
                            <path d="M245,310C272.57,310 295,287.57 295,260C295,232.43 272.57,210 245,210C217.43,210 195,232.43 195,260C195,287.57 217.43,310 245,310ZM245,230C261.542,230 275,243.458 275,260C275,276.542 261.542,290 245,290C228.458,290 215,276.542 215,260C215,243.458 228.458,230 245,230Z" style="fill:white;fill-rule:nonzero;"/>
                            <rect x="380" y="150" width="20" height="20" style="fill:rgb(5,195,222);"/>
                            <rect x="410" y="150" width="20" height="20" style="fill:rgb(5,195,222);"/>
                            <rect x="440" y="150" width="20" height="20" style="fill:rgb(5,195,222);"/>
                            <rect x="30" y="350" width="20" height="20" style="fill:rgb(5,195,222);"/>
                            <rect x="60" y="350" width="20" height="20" style="fill:rgb(5,195,222);"/>
                            <rect x="90" y="350" width="20" height="20" style="fill:rgb(5,195,222);"/>
                            <rect x="65" y="430" width="360" height="20" style="fill:white;"/>
                        </g>
                    </g>
                </g>
            </g>
        </g>
    </g>
</svg>
