<?xml version="1.0" encoding="UTF-8" standalone="no"?>
<!DOCTYPE svg PUBLIC "-//W3C//DTD SVG 1.1//EN" "http://www.w3.org/Graphics/SVG/1.1/DTD/svg11.dtd">
<svg width="100%" height="100%" viewBox="0 0 3452 3452" version="1.1" xmlns="http://www.w3.org/2000/svg" xmlns:xlink="http://www.w3.org/1999/xlink" xml:space="preserve" xmlns:serif="http://www.serif.com/" style="fill-rule:evenodd;clip-rule:evenodd;stroke-linejoin:round;stroke-miterlimit:2;">
    <g id="Capa-1" serif:id="Capa 1" transform="matrix(4.166667,0,0,4.166667,0,0)">
        <g transform="matrix(1,0,0,1,341.9001,602.8293)">
            <path d="M0,-377.399L-62.81,-271.889L-62.81,-247.029L-96.09,-247.029L-96.09,-271.889L-33.91,-377.399L0,-377.399ZM42.71,-377.399L11.3,-271.889L11.3,-247.029L-20.1,-247.029L-20.1,-274.409L11.3,-377.399L42.71,-377.399ZM90.44,-377.399L94.03,-247.029L51.51,-247.029L51.51,-377.399L90.44,-377.399ZM140.68,-377.399L168.32,-270.639L168.32,-247.029L129.38,-247.029L129.38,-286.179L104.25,-377.399L140.68,-377.399ZM180.88,-377.399L244.939,-270.639L244.939,-247.029L211.02,-247.029L211.02,-270.639L157.01,-377.399L180.88,-377.399ZM72.22,-602.83C-156.49,-602.83 -341.9,-417.42 -341.9,-188.699C-341.9,40.021 -156.49,225.431 72.22,225.431C300.939,225.431 486.35,40.021 486.35,-188.699C486.35,-417.42 300.939,-602.83 72.22,-602.83" style="fill:rgb(0,23,73);fill-rule:nonzero;"/>
        </g>
        <g transform="matrix(-1,0,0,1,150.6227,553.4307)">
            <path d="M-527,49.403L0,49.403C0,22.13 -22.131,0 -49.412,0L-477.597,0C-504.869,0 -527,22.13 -527,49.403" style="fill:white;fill-rule:nonzero;"/>
        </g>
        <g transform="matrix(1,0,0,1,578.82,258.36)">
            <path d="M0,245.67L-197.64,245.67L-197.64,149.51L-185.41,149.51L-185.41,130.38L-141.98,130.38L-141.45,149.51L-107.54,149.51L-107.54,130.38L-68.6,130.38L-68.6,149.51L-25.9,149.51L-25.9,130.38L0,130.38L0,245.67ZM-230.57,245.67L-329.38,245.67L-329.38,130.38L-299.73,130.38L-299.73,149.51L-257.02,149.51L-257.02,130.38L-230.57,130.38L-230.57,245.67ZM-39.71,-32.93L-56.04,-32.93L8.02,73.83L8.02,97.441L-25.9,97.441L-25.9,73.83L-79.91,-32.93L-96.24,-32.93L-68.6,73.83L-68.6,97.441L-107.54,97.441L-107.54,58.29L-132.67,-32.93L-146.48,-32.93L-142.89,97.441L-185.41,97.441L-185.41,-32.93L-194.21,-32.93L-225.62,72.58L-225.62,97.441L-257.02,97.441L-257.02,70.061L-225.62,-32.93L-236.92,-32.93L-299.73,72.58L-299.73,97.441L-333.01,97.441L-333.01,72.58L-270.83,-32.93L-285.91,-32.93L-380.11,72.58L-380.11,149.51L-362.32,149.51L-362.32,278.6L32.93,278.6L32.93,149.51L50.72,149.51L50.72,72.58L-39.71,-32.93Z" style="fill:white;fill-rule:nonzero;"/>
        </g>
        <g transform="matrix(1,0,0,1,578.8151,504.026)">
            <path d="M0,-115.289L0,0L-197.631,0L-197.631,-96.158L-185.409,-96.158L-185.409,-115.289L-141.973,-115.289L-141.45,-96.158L-107.539,-96.158L-107.539,-115.289L-68.599,-115.289L-68.599,-96.158L-25.892,-96.158L-25.892,-115.289L0,-115.289Z" style="fill:rgb(0,23,73);fill-rule:nonzero;"/>
        </g>
        <g transform="matrix(1,0,0,1,302.4963,398.1141)">
            <path d="M0,96.535C-8.469,96.535 -15.329,89.676 -15.329,81.206C-15.329,72.736 -8.469,65.878 0,65.878C8.478,65.878 15.329,72.736 15.329,81.206C15.329,89.676 8.478,96.535 0,96.535M19.302,-9.377L19.302,9.754L-23.406,9.754L-23.406,-9.377L-53.058,-9.377L-53.058,105.912L45.757,105.912L45.757,-9.377L19.302,-9.377Z" style="fill:rgb(0,23,73);fill-rule:nonzero;"/>
        </g>
        <g transform="matrix(0,-1,-1,0,302.4959,463.9915)">
            <path d="M-15.329,-15.33C-23.799,-15.33 -30.657,-8.478 -30.657,-0.001C-30.657,8.468 -23.799,15.329 -15.329,15.329C-6.858,15.329 -0.001,8.468 -0.001,-0.001C-0.001,-8.478 -6.858,-15.33 -15.329,-15.33" style="fill:white;fill-rule:nonzero;"/>
        </g>
        <g transform="matrix(1,0,0,1,341.9001,355.8003)">
            <path d="M0,-130.37L-62.81,-24.86L-62.81,0L-96.09,0L-96.09,-24.86L-33.91,-130.37L0,-130.37Z" style="fill:rgb(5,195,222);fill-rule:nonzero;"/>
        </g>
        <g transform="matrix(1,0,0,1,384.61,355.8003)">
            <path d="M0,-130.37L-31.41,-24.86L-31.41,0L-62.81,0L-62.81,-27.38L-31.41,-130.37L0,-130.37Z" style="fill:rgb(5,195,222);fill-rule:nonzero;"/>
        </g>
        <g transform="matrix(-1,0,0,1,393.4104,225.4305)">
            <path d="M-42.52,130.37L0,130.37L0,0L-38.93,0L-42.52,130.37Z" style="fill:rgb(5,195,222);fill-rule:nonzero;"/>
        </g>
        <g transform="matrix(1,0,0,1,510.2204,249.0401)">
            <path d="M0,83.15L0,106.76L-38.94,106.76L-38.94,67.61L-64.07,-23.61L-27.64,-23.61L0,83.15Z" style="fill:rgb(5,195,222);fill-rule:nonzero;"/>
        </g>
        <g transform="matrix(1,0,0,1,586.8395,249.0401)">
            <path d="M0,83.15L0,106.76L-33.92,106.76L-33.92,83.15L-87.929,-23.61L-64.06,-23.61L0,83.15Z" style="fill:rgb(5,195,222);fill-rule:nonzero;"/>
        </g>
    </g>
</svg>
